<svg width="295" height="200" viewBox="0 0 295 200" fill="none" xmlns="http://www.w3.org/2000/svg">
<g clip-path="url(#clip0)">
<path d="M140.382 161.368H36.5265C35.7134 161.368 34.9336 161.045 34.3587 160.47C33.7837 159.896 33.4607 159.116 33.4607 158.303V12.3158C33.4607 11.5021 33.7835 10.7216 34.3583 10.1456C34.933 9.56963 35.7128 9.24517 36.5265 9.24342H140.382C141.196 9.24516 141.977 9.56941 142.552 10.1452C143.128 10.721 143.452 11.5015 143.454 12.3158V158.303C143.452 159.116 143.128 159.896 142.552 160.471C141.976 161.046 141.195 161.368 140.382 161.368ZM36.5265 9.38158C35.7483 9.38158 35.002 9.69072 34.4517 10.241C33.9015 10.7913 33.5923 11.5376 33.5923 12.3158V158.303C33.5923 159.081 33.9015 159.827 34.4517 160.377C35.002 160.928 35.7483 161.237 36.5265 161.237H140.382C140.767 161.237 141.149 161.161 141.505 161.013C141.861 160.866 142.184 160.65 142.457 160.377C142.729 160.105 142.945 159.781 143.093 159.426C143.24 159.07 143.316 158.688 143.316 158.303V12.3158C143.316 11.9305 143.24 11.5489 143.093 11.1929C142.945 10.8369 142.729 10.5135 142.457 10.241C142.184 9.96853 141.861 9.75239 141.505 9.60493C141.149 9.45748 140.767 9.38158 140.382 9.38158H36.5265Z" fill="#EBEBEB"/>
<path d="M256.717 161.368H152.862C152.048 161.368 151.268 161.046 150.692 160.471C150.116 159.896 149.791 159.116 149.79 158.303V12.3158C149.791 11.5015 150.116 10.721 150.691 10.1452C151.267 9.56941 152.048 9.24516 152.862 9.24342H256.717C257.531 9.24517 258.311 9.56963 258.885 10.1456C259.46 10.7216 259.783 11.5021 259.783 12.3158V158.303C259.783 159.116 259.46 159.896 258.885 160.47C258.31 161.045 257.53 161.368 256.717 161.368ZM152.862 9.39474C152.084 9.39474 151.337 9.70388 150.787 10.2541C150.237 10.8044 149.928 11.5507 149.928 12.3289V158.316C149.928 159.094 150.237 159.84 150.787 160.391C151.337 160.941 152.084 161.25 152.862 161.25H256.717C257.495 161.25 258.242 160.941 258.792 160.391C259.342 159.84 259.651 159.094 259.651 158.316V12.3158C259.651 11.5376 259.342 10.7913 258.792 10.241C258.242 9.69072 257.495 9.38158 256.717 9.38158L152.862 9.39474Z" fill="#EBEBEB"/>
<path d="M98.2896 28.0263H46.283V171.467H98.2896V28.0263Z" fill="#F5F5F5"/>
<path d="M98.2897 171.467H98.8161L98.8161 28.0263H98.2897L98.2897 171.467Z" fill="#EBEBEB"/>
<path d="M93.2702 33.5H51.3031V165.993H93.2702V33.5Z" fill="white"/>
<path d="M166.579 184.099H180.934V130.638H166.579V184.099Z" fill="#E6E6E6"/>
<path d="M168.967 184.092H166.579V179.283H171.474L168.967 184.092Z" fill="#F1F0F0"/>
<path d="M269.862 184.099H284.217V130.638H269.862V184.099Z" fill="#E6E6E6"/>
<path d="M166.579 182.25H271.948V130.638H166.579V182.25Z" fill="#F1F0F0"/>
<path d="M168.428 147.079H270.092V132.928H168.428V147.079Z" fill="#E6E6E6"/>
<path d="M194.151 137.322H244.375C246.71 137.322 248.934 135.572 250.539 132.493H187.987C189.592 135.572 191.816 137.322 194.151 137.322Z" fill="#F1F0F0"/>
<path d="M269.559 184.092H271.947V179.283H267.053L269.559 184.092Z" fill="#F1F0F0"/>
<path d="M168.428 163.52H270.092V149.368H168.428V163.52Z" fill="#E6E6E6"/>
<path d="M194.151 153.763H244.375C246.71 153.763 248.934 152.013 250.539 148.934H187.987C189.592 152.013 191.816 153.763 194.151 153.763Z" fill="#F1F0F0"/>
<path d="M168.428 179.961H270.092V165.809H168.428V179.961Z" fill="#E6E6E6"/>
<path d="M194.151 170.204H244.375C246.71 170.204 248.934 168.461 250.539 165.375H187.987C189.592 168.461 191.816 170.204 194.151 170.204Z" fill="#F1F0F0"/>
<path d="M1.05276 184.526H295.244" stroke="#9BCEE2" stroke-width="3" stroke-miterlimit="10" stroke-linecap="round"/>
<path d="M218.441 37.4671H222.388" stroke="#9BCEE2" stroke-miterlimit="10" stroke-linecap="round"/>
<path d="M225.546 37.5H245.283C245.861 37.5017 246.415 37.7326 246.823 38.1421C247.231 38.5515 247.461 39.1061 247.461 39.6842V122.178" stroke="#9BCEE2" stroke-miterlimit="10" stroke-linecap="round" stroke-dasharray="11.51 4.79"/>
<path d="M247.007 123.684C246.804 123.953 246.541 124.17 246.24 124.32C245.938 124.469 245.606 124.547 245.27 124.546H243.329" stroke="#9BCEE2" stroke-miterlimit="10" stroke-linecap="round"/>
<path d="M221.764 191.388H221.165C221.041 191.377 220.924 191.322 220.837 191.233C220.751 191.143 220.699 191.026 220.691 190.901L217.027 165.368H219.81L222.237 190.73C222.251 190.805 222.25 190.881 222.234 190.955C222.217 191.029 222.186 191.099 222.142 191.161C222.097 191.222 222.041 191.274 221.976 191.313C221.911 191.352 221.839 191.378 221.764 191.388Z" fill="#42B6E9"/>
<path opacity="0.3" d="M221.764 191.388H221.165C221.041 191.377 220.924 191.322 220.837 191.233C220.751 191.143 220.699 191.026 220.691 190.901L217.027 165.368H219.81L222.237 190.73C222.251 190.805 222.25 190.881 222.234 190.955C222.217 191.029 222.186 191.099 222.142 191.161C222.097 191.222 222.041 191.274 221.976 191.313C221.911 191.352 221.839 191.378 221.764 191.388Z" fill="#263238"/>
<path d="M229.408 191.388H228.809C228.684 191.379 228.567 191.324 228.48 191.234C228.393 191.145 228.341 191.026 228.335 190.901L224.664 165.368H227.454L229.881 190.73C229.896 190.805 229.894 190.881 229.878 190.955C229.861 191.029 229.83 191.099 229.786 191.161C229.742 191.222 229.685 191.274 229.62 191.313C229.555 191.352 229.483 191.378 229.408 191.388Z" fill="#42B6E9"/>
<path opacity="0.3" d="M229.408 191.388H228.809C228.684 191.379 228.567 191.324 228.48 191.234C228.393 191.145 228.341 191.026 228.335 190.901L224.664 165.368H227.454L229.881 190.73C229.896 190.805 229.894 190.881 229.878 190.955C229.861 191.029 229.83 191.099 229.786 191.161C229.742 191.222 229.685 191.274 229.62 191.313C229.555 191.352 229.483 191.378 229.408 191.388Z" fill="#263238"/>
<path d="M186.842 191.388H187.441C187.565 191.377 187.681 191.322 187.768 191.233C187.855 191.143 187.907 191.026 187.914 190.901L191.579 165.368H188.796L186.368 190.73C186.354 190.805 186.355 190.881 186.372 190.955C186.388 191.029 186.42 191.099 186.464 191.161C186.508 191.222 186.565 191.274 186.63 191.313C186.695 191.352 186.767 191.378 186.842 191.388Z" fill="#42B6E9"/>
<path opacity="0.3" d="M186.842 191.388H187.441C187.565 191.377 187.681 191.322 187.768 191.233C187.855 191.143 187.907 191.026 187.914 190.901L191.579 165.368H188.796L186.368 190.73C186.354 190.805 186.355 190.881 186.372 190.955C186.388 191.029 186.42 191.099 186.464 191.161C186.508 191.222 186.565 191.274 186.63 191.313C186.695 191.352 186.767 191.378 186.842 191.388Z" fill="#263238"/>
<path d="M179.171 191.388H179.77C179.894 191.379 180.011 191.324 180.099 191.234C180.186 191.145 180.237 191.026 180.243 190.901L183.914 165.368H181.125L178.697 190.73C178.683 190.805 178.684 190.881 178.701 190.955C178.717 191.029 178.749 191.099 178.793 191.161C178.837 191.222 178.894 191.274 178.959 191.313C179.024 191.352 179.096 191.378 179.171 191.388Z" fill="#42B6E9"/>
<path opacity="0.3" d="M179.171 191.388H179.77C179.894 191.379 180.011 191.324 180.099 191.234C180.186 191.145 180.237 191.026 180.243 190.901L183.914 165.368H181.125L178.697 190.73C178.683 190.805 178.684 190.881 178.701 190.955C178.717 191.029 178.749 191.099 178.793 191.161C178.837 191.222 178.894 191.274 178.959 191.313C179.024 191.352 179.096 191.378 179.171 191.388Z" fill="#263238"/>
<path d="M169.27 135.105H188.033C191.362 123.546 203.342 114.421 215.612 114.421H221.711C234.553 114.421 242.836 124.414 240.217 136.737C239.728 139.006 238.924 141.196 237.829 143.243L234.869 161.184C234.487 163.5 232.638 165.375 230.744 165.375H174.263C172.369 165.375 170.52 163.5 170.138 161.184L166.527 139.303C166.145 136.98 167.375 135.105 169.27 135.105Z" fill="#42B6E9"/>
<path opacity="0.5" d="M169.27 135.105H188.033C191.362 123.546 203.342 114.421 215.612 114.421H221.711C234.553 114.421 242.836 124.414 240.217 136.737C239.728 139.006 238.924 141.196 237.829 143.243L234.869 161.184C234.487 163.5 232.638 165.375 230.744 165.375H174.263C172.369 165.375 170.52 163.5 170.138 161.184L166.527 139.303C166.145 136.98 167.375 135.105 169.27 135.105Z" fill="white"/>
<path d="M164.572 184.783L169.217 186.914C169.256 186.93 169.292 186.954 169.322 186.984C169.353 187.013 169.377 187.049 169.393 187.088C169.41 187.127 169.418 187.169 169.419 187.212C169.419 187.254 169.411 187.296 169.395 187.336L167.934 191.118C167.844 191.311 167.682 191.461 167.483 191.536C167.284 191.611 167.063 191.605 166.868 191.52C165.263 190.75 164.539 190.303 162.493 189.362C160.334 188.293 158.246 187.084 156.243 185.743C154.724 184.651 155.842 183.112 156.599 183.454C159.993 184.954 162.151 185.092 163.743 184.711C164.02 184.638 164.313 184.663 164.572 184.783Z" fill="#42484E"/>
<path d="M197.526 127.816C197.526 127.816 167.816 128.184 167.355 139.895C166.698 156.73 164.211 184.678 164.211 184.678L169.217 186.914C169.217 186.914 178 158.862 178.309 145.717C186.645 143.638 208.151 145.717 210.684 138.882C211.921 135.33 212.246 131.526 211.632 127.816H197.526Z" fill="#1D2238"/>
<path opacity="0.2" d="M197.526 127.816C197.526 127.816 167.816 128.184 167.355 139.895C166.698 156.73 164.211 184.678 164.211 184.678L169.217 186.914C169.217 186.914 178 158.862 178.309 145.717C186.645 143.638 208.151 145.717 210.684 138.882C211.921 135.33 212.246 131.526 211.632 127.816H197.526Z" fill="#1D2238"/>
<path d="M203.849 97C203.592 98.0855 203.329 99.0592 203.026 100.072C202.724 101.086 202.427 102.046 202.105 103.059C201.447 105.033 200.737 107.007 199.908 108.98C199.083 110.976 198.127 112.914 197.046 114.783C196.474 115.767 195.844 116.716 195.158 117.625C194.404 118.635 193.534 119.554 192.566 120.362L192.487 120.428C192.428 120.475 192.366 120.519 192.302 120.559C191.742 120.926 191.101 121.152 190.434 121.217C190.012 121.267 189.586 121.267 189.164 121.217C188.582 121.145 188.01 121.006 187.46 120.803C186.602 120.488 185.769 120.11 184.967 119.671C183.536 118.878 182.154 117.999 180.829 117.039C179.513 116.112 178.289 115.145 177.079 114.145C175.868 113.145 174.691 112.118 173.546 111.013C173.266 110.725 173.096 110.348 173.068 109.947C173.039 109.546 173.152 109.148 173.388 108.823C173.625 108.498 173.968 108.267 174.358 108.171C174.748 108.074 175.159 108.119 175.52 108.296H175.552C176.868 109.026 178.184 109.803 179.5 110.52C180.816 111.237 182.131 111.98 183.447 112.658C184.763 113.336 186.079 113.974 187.395 114.507C187.968 114.749 188.56 114.947 189.164 115.099C189.343 115.144 189.526 115.169 189.71 115.171C189.75 115.171 189.71 115.171 189.592 115.171C189.308 115.202 189.037 115.304 188.802 115.467L188.533 115.664C189.081 115.129 189.566 114.533 189.98 113.888C190.441 113.184 190.901 112.414 191.296 111.605C192.15 109.926 192.912 108.202 193.579 106.441C194.27 104.645 194.895 102.809 195.506 100.947C196.118 99.0855 196.658 97.1711 197.164 95.3684V95.3027C197.442 94.49 198.017 93.8122 198.773 93.405C199.53 92.9978 200.412 92.8913 201.243 93.1066C202.075 93.322 202.794 93.8434 203.258 94.5665C203.721 95.2896 203.895 96.1611 203.743 97.0066L203.849 97Z" fill="#42484E"/>
<path d="M191.803 187.197H197.369C197.415 187.196 197.462 187.203 197.506 187.219C197.549 187.236 197.589 187.26 197.624 187.292C197.658 187.324 197.686 187.362 197.705 187.404C197.724 187.447 197.735 187.493 197.737 187.539L198.007 191.947C198.008 192.062 197.986 192.176 197.943 192.283C197.899 192.389 197.836 192.486 197.755 192.568C197.674 192.65 197.578 192.715 197.473 192.76C197.367 192.805 197.253 192.828 197.138 192.829C195.165 192.796 194.276 192.684 191.823 192.684C190.316 192.684 187.27 192.842 185.191 192.842C183.112 192.842 183.165 190.783 184.046 190.592C187.994 189.757 189.54 188.618 190.941 187.507C191.185 187.309 191.489 187.199 191.803 187.197Z" fill="#42484E"/>
<path d="M205.533 127.816C205.533 127.816 178.559 130.092 179.217 141.796C179.947 154.605 191.776 187.191 191.776 187.191H197.23C197.23 187.191 192.566 157.349 190.921 144.296C198.52 144.296 216.138 145.73 218.664 138.875C219.901 135.324 220.226 131.519 219.612 127.809L205.533 127.816Z" fill="#1D2238"/>
<path d="M175.967 108.855C175.545 108.171 175.034 107.545 174.448 106.993C173.349 108.033 172.724 111.046 172.724 111.046L174.25 111.184C174.741 111.019 175.168 110.706 175.475 110.29C175.782 109.873 175.954 109.373 175.967 108.855Z" fill="#42B6E9"/>
<path d="M170.395 106.151L168.664 105.395C168.439 105.298 168.186 105.285 167.953 105.36C167.719 105.435 167.521 105.592 167.395 105.803L166.572 107.164C166.458 107.355 166.409 107.579 166.434 107.8C166.459 108.021 166.556 108.228 166.71 108.388L169.085 110.868L173.033 110.711C173.257 110.7 173.474 110.631 173.662 110.51C173.85 110.388 174.003 110.219 174.105 110.02L174.566 109.125C174.706 108.854 174.743 108.54 174.669 108.243C174.595 107.947 174.416 107.687 174.164 107.513C172.981 106.878 171.711 106.419 170.395 106.151Z" fill="#F6B59C"/>
<path d="M197.27 95.8553C196.474 100.855 195.448 111.697 197.546 128.026L219.638 127.816C219.507 116.5 221.277 105.882 223.013 95.5C223.081 95.0923 223.067 94.675 222.971 94.273C222.874 93.8711 222.698 93.4925 222.453 93.1599C222.207 92.8273 221.897 92.5474 221.542 92.3369C221.186 92.1263 220.792 91.9894 220.382 91.9342C214.044 91.1903 207.641 91.1903 201.303 91.9342C200.301 92.0731 199.369 92.5283 198.644 93.2336C197.918 93.9389 197.437 94.8574 197.27 95.8553Z" fill="#42484E"/>
<path d="M223.21 94.079C223.868 95.6908 224.381 97.2369 224.914 98.829C225.447 100.421 225.908 102.02 226.348 103.638C226.789 105.257 227.171 106.928 227.48 108.599C227.814 110.324 228.034 112.069 228.138 113.822C228.171 114.276 228.177 114.743 228.184 115.211V115.928C228.179 116.658 227.989 117.376 227.631 118.013C227.397 118.425 227.084 118.787 226.71 119.079C226.54 119.222 226.355 119.346 226.158 119.447C225.987 119.546 225.809 119.629 225.625 119.697C225.103 119.893 224.55 119.989 223.993 119.98C223.325 119.97 222.661 119.868 222.019 119.678C221.092 119.399 220.189 119.043 219.322 118.612C218.513 118.211 217.756 117.796 217.013 117.362C214.134 115.639 211.401 113.683 208.842 111.513C208.522 111.249 208.31 110.876 208.246 110.466C208.182 110.056 208.27 109.636 208.495 109.287C208.719 108.938 209.064 108.683 209.464 108.57C209.864 108.458 210.291 108.496 210.664 108.678H210.704C213.585 110.046 216.513 111.454 219.368 112.625C220.079 112.914 220.789 113.191 221.48 113.421C222.1 113.649 222.738 113.823 223.388 113.941C223.638 113.98 223.868 113.98 223.842 113.941C223.691 113.927 223.539 113.952 223.401 114.013C223.2 114.091 223.012 114.197 222.842 114.329C222.628 114.503 222.446 114.712 222.302 114.947C222.139 115.227 222.04 115.539 222.013 115.862V115.362C221.98 115.013 221.947 114.671 221.901 114.316C221.435 111.302 220.74 108.329 219.822 105.421C218.927 102.434 217.901 99.3816 216.855 96.4803C216.544 95.6381 216.577 94.7072 216.949 93.8897C217.32 93.0722 217.999 92.4343 218.838 92.1145C219.677 91.7947 220.608 91.8189 221.429 92.1818C222.25 92.5447 222.895 93.217 223.223 94.0527L223.21 94.079Z" fill="#42484E"/>
<path d="M214.382 80.7303L211.711 82.9474L208.073 85.9671C208.177 86.4514 208.254 86.9412 208.303 87.4342C208.474 89.1908 208.092 90.8092 205.954 91.625C205.55 91.7619 205.182 91.9879 204.877 92.2862C204.571 92.5846 204.337 92.9477 204.191 93.3487C203.902 94.2829 204.244 95.3224 207.178 95.3224C211.481 95.3224 213.757 93.4079 214.573 92.4671C214.687 92.3363 214.753 92.1705 214.76 91.9971C214.767 91.8237 214.715 91.653 214.612 91.5132C212.908 89.0987 213.685 83.75 214.382 80.7303Z" fill="#F6B59C"/>
<path d="M207.072 94.375C207.256 94.5926 207.383 94.8527 207.441 95.1316C207.661 94.8315 207.936 94.5749 208.25 94.375C208.622 94.5495 208.952 94.801 209.218 95.113C209.485 95.425 209.682 95.7901 209.796 96.1842C208.985 96.0167 208.204 95.7261 207.48 95.3224C207.002 95.5884 206.473 95.752 205.928 95.8027C205.961 94.8421 207.072 94.375 207.072 94.375Z" fill="#42B6E9"/>
<path d="M208.25 94.375C209.023 95.307 209.532 96.4293 209.724 97.625C209.724 97.625 216.856 95.8421 216.52 91.1908C215.894 90.8968 215.23 90.693 214.546 90.5855C214.546 90.5855 213.013 93.3684 208.25 94.375Z" fill="#42B6E9"/>
<path d="M207.072 94.375C206.289 95.3126 205.749 96.4289 205.5 97.625C205.5 97.625 201.842 94.296 205.408 91.2302C206.02 91.0346 206.65 90.9024 207.289 90.8355C207.289 90.8355 204.921 92.7631 207.072 94.375Z" fill="#42B6E9"/>
<path opacity="0.2" d="M208.073 85.9671C208.177 86.4513 208.254 86.9412 208.303 87.4342C209.658 87.1645 211.474 85.7171 211.658 84.3289C211.726 83.8717 211.743 83.4084 211.711 82.9474L208.073 85.9671Z" fill="#263238"/>
<path d="M204.165 71.1316C200.809 73.5131 202.684 79.0921 205.546 76.9539C208.408 74.8158 206.901 69.1908 204.165 71.1316Z" fill="#42484E"/>
<path d="M215.48 76.0987C214.552 80.375 214.23 82.9145 211.704 84.8618C210.891 85.5108 209.916 85.9242 208.885 86.0568C207.853 86.1895 206.805 86.0364 205.855 85.6142C204.905 85.192 204.089 84.5169 203.496 83.6626C202.903 82.8084 202.556 81.8077 202.493 80.7697C202.158 76.8224 203.737 70.4737 208.23 69.2697C209.197 68.9772 210.224 68.9449 211.207 69.176C212.191 69.4072 213.096 69.8936 213.831 70.5863C214.566 71.2789 215.106 72.1533 215.396 73.1211C215.685 74.0889 215.714 75.116 215.48 76.0987Z" fill="#F6B59C"/>
<path d="M213.507 72.9342C211.138 72.2763 205.033 73.8355 202.862 71.5197C200.54 69.0395 203.928 67.8355 204.928 68.6974C203.665 67.25 204.138 65.704 205.928 65.8421C207.244 65.9408 207.652 67.3882 207.652 67.3882C207.652 67.3882 207.434 64.8553 209.678 65.0329C211.724 65.1908 211.731 67.9408 211.731 67.9408C211.731 67.9408 216.599 66.5658 218.224 71.2303C221.29 71.1645 221.217 77.6184 215.053 79.9145C212.553 78.6513 212.434 74.25 213.507 72.9342Z" fill="#42484E"/>
<path d="M217.566 72.1447C217.421 72.1438 217.281 72.0918 217.17 71.998C217.059 71.9042 216.985 71.7745 216.96 71.6316C216.945 71.552 216.946 71.4703 216.963 71.3911C216.979 71.3118 217.012 71.2367 217.057 71.17C217.103 71.1033 217.162 71.0463 217.23 71.0025C217.298 70.9586 217.374 70.9287 217.454 70.9145C217.622 70.808 217.749 70.6481 217.816 70.4605C217.905 70.2821 217.957 70.0874 217.968 69.8884C217.979 69.6893 217.95 69.49 217.882 69.3026C217.829 69.1554 217.833 68.9939 217.894 68.8498C217.955 68.7057 218.067 68.5896 218.209 68.5244C218.351 68.4591 218.513 68.4495 218.661 68.4974C218.81 68.5452 218.936 68.6471 219.013 68.7829C219.162 69.1575 219.227 69.5603 219.203 69.9628C219.179 70.3652 219.067 70.7575 218.875 71.1118C218.766 71.3618 218.602 71.5836 218.394 71.7603C218.187 71.937 217.942 72.064 217.678 72.1316L217.566 72.1447Z" fill="#42484E"/>
<path d="M216.177 80.0592C215.596 80.8182 214.755 81.3359 213.816 81.5131C212.612 81.7303 212.243 80.6184 212.776 79.5395C213.256 78.5658 214.467 77.2829 215.585 77.5658C216.704 77.8487 216.895 79.1184 216.177 80.0592Z" fill="#F6B59C"/>
<path d="M210.019 105.816L207.585 104.303C207.412 104.194 207.218 104.121 207.016 104.088C206.814 104.055 206.608 104.062 206.408 104.11C206.209 104.158 206.022 104.245 205.857 104.366C205.692 104.487 205.552 104.64 205.447 104.816L205.158 105.289C204.988 105.57 204.912 105.897 204.941 106.223C204.969 106.549 205.1 106.858 205.316 107.105L207 109.033C207 109.033 208.46 112.447 210.158 111.546L211.473 109.303L210.019 105.816Z" fill="#F6B59C"/>
<path d="M212.533 110.178C212.206 109.369 211.777 108.607 211.257 107.908C210.033 108.961 209.039 112.303 209.039 112.303L210.539 112.625C211.08 112.466 211.56 112.147 211.916 111.71C212.271 111.274 212.487 110.739 212.533 110.178Z" fill="#42B6E9"/>
<path d="M231.204 135.105H202.257C200.355 135.105 199.132 136.98 199.513 139.296L203.151 161.184C203.533 163.5 205.375 165.375 207.276 165.375H227.632L231.204 135.105Z" fill="#42B6E9"/>
<path opacity="0.5" d="M231.204 135.105H202.257C200.355 135.105 199.132 136.98 199.513 139.296L203.151 161.184C203.533 163.5 205.375 165.375 207.276 165.375H227.632L231.204 135.105Z" fill="white"/>
<path d="M97.7438 193.263H98.5793C98.7219 193.258 98.8572 193.199 98.9575 193.097C99.0578 192.996 99.1155 192.86 99.1188 192.717L103.724 123.691H100.263L97.2043 192.645C97.198 192.721 97.2071 192.798 97.231 192.87C97.2549 192.943 97.2931 193.01 97.3434 193.068C97.3937 193.126 97.455 193.173 97.5238 193.206C97.5926 193.24 97.6674 193.259 97.7438 193.263Z" fill="#595A5C"/>
<path opacity="0.3" d="M97.7438 193.263H98.5793C98.7219 193.258 98.8572 193.199 98.9575 193.097C99.0578 192.996 99.1155 192.86 99.1188 192.717L103.724 123.691H100.263L97.2043 192.645C97.198 192.721 97.2071 192.798 97.231 192.87C97.2549 192.943 97.2931 193.01 97.3434 193.068C97.3937 193.126 97.455 193.173 97.5238 193.206C97.5926 193.24 97.6674 193.259 97.7438 193.263Z" fill="#595A5C"/>
<path d="M88.2695 193.263H89.1051C89.2477 193.258 89.383 193.199 89.4833 193.097C89.5836 192.996 89.6413 192.86 89.6445 192.717L94.2498 123.691H90.7893L87.7301 192.645C87.7238 192.721 87.7329 192.798 87.7568 192.87C87.7807 192.943 87.8189 193.01 87.8692 193.068C87.9195 193.126 87.9808 193.173 88.0496 193.206C88.1184 193.24 88.1931 193.259 88.2695 193.263Z" fill="#595A5C"/>
<path opacity="0.3" d="M88.2695 193.263H89.1051C89.2477 193.258 89.383 193.199 89.4833 193.097C89.5836 192.996 89.6413 192.86 89.6445 192.717L94.2498 123.691H90.7893L87.7301 192.645C87.7238 192.721 87.7329 192.798 87.7568 192.87C87.7807 192.943 87.8189 193.01 87.8692 193.068C87.9195 193.126 87.9808 193.173 88.0496 193.206C88.1184 193.24 88.1931 193.259 88.2695 193.263Z" fill="#595A5C"/>
<path d="M205.073 193.263H204.237C204.095 193.258 203.959 193.199 203.859 193.097C203.759 192.996 203.701 192.86 203.698 192.717L199.092 123.691H202.546L205.606 192.645C205.613 192.721 205.605 192.797 205.581 192.87C205.558 192.943 205.521 193.01 205.471 193.068C205.421 193.125 205.36 193.172 205.292 193.206C205.223 193.24 205.149 193.259 205.073 193.263Z" fill="#595A5C"/>
<path opacity="0.3" d="M205.073 193.263H204.237C204.095 193.258 203.959 193.199 203.859 193.097C203.759 192.996 203.701 192.86 203.698 192.717L199.092 123.691H202.546L205.606 192.645C205.613 192.721 205.605 192.797 205.581 192.87C205.558 192.943 205.521 193.01 205.471 193.068C205.421 193.125 205.36 193.172 205.292 193.206C205.223 193.24 205.149 193.259 205.073 193.263Z" fill="#595A5C"/>
<path d="M214.546 193.263H213.711C213.568 193.258 213.433 193.199 213.332 193.097C213.232 192.996 213.174 192.86 213.171 192.717L208.553 123.684H212.007L215.066 192.638C215.074 192.714 215.067 192.79 215.045 192.862C215.023 192.935 214.987 193.002 214.938 193.061C214.89 193.119 214.83 193.167 214.763 193.202C214.695 193.237 214.622 193.257 214.546 193.263Z" fill="#595A5C"/>
<path opacity="0.3" d="M214.546 193.263H213.711C213.568 193.258 213.433 193.199 213.332 193.097C213.232 192.996 213.174 192.86 213.171 192.717L208.553 123.684H212.007L215.066 192.638C215.074 192.714 215.067 192.79 215.045 192.862C215.023 192.935 214.987 193.002 214.938 193.061C214.89 193.119 214.83 193.167 214.763 193.202C214.695 193.237 214.622 193.257 214.546 193.263Z" fill="#595A5C"/>
<path d="M218.526 122.27H84.092V123.691H218.526V122.27Z" fill="#595A5C"/>
<path d="M81.8552 100.289L80.5854 109.632C80.1841 112.743 79.7631 115.862 79.467 118.921C79.421 119.309 79.3947 119.684 79.3618 120.059L79.3157 120.632C79.3275 120.538 79.3275 120.443 79.3157 120.349C79.3061 120.259 79.2862 120.171 79.2565 120.086C79.2332 120.018 79.2046 119.952 79.171 119.888C79.171 119.849 79.1118 119.796 79.092 119.763C79.0723 119.73 78.9802 119.658 79.0065 119.684L79.1973 119.842C79.4323 120.002 79.6786 120.145 79.9341 120.27C81.2588 120.876 82.6266 121.384 84.0262 121.789C86.9539 122.678 90.0197 123.447 93.046 124.191L92.7039 126.822C89.465 126.718 86.2376 126.383 83.046 125.822C81.3533 125.538 79.6905 125.097 78.0789 124.507C77.6035 124.325 77.1436 124.105 76.7039 123.849C76.4299 123.697 76.1701 123.521 75.9276 123.322C75.5818 123.055 75.2799 122.735 75.0328 122.375C74.8589 122.11 74.7175 121.825 74.6118 121.526C74.5571 121.343 74.5132 121.156 74.4802 120.967C74.4573 120.777 74.4464 120.586 74.4473 120.395V119.776C74.4473 119.362 74.4473 118.947 74.4868 118.546C74.6183 115.289 74.9144 112.112 75.2565 108.934C75.5986 105.757 75.9999 102.612 76.4999 99.4474L81.8552 100.289Z" fill="#F69994"/>
<path d="M100.046 126.974L98.0264 128.868C97.7941 129.082 97.503 129.22 97.1909 129.266C96.8788 129.312 96.5602 129.263 96.2764 129.125L94.0132 128.039C94.0132 128.039 90.6645 127.901 90.1908 125.855L91.0527 124.263L96.2435 123.691C96.7753 123.631 97.3119 123.749 97.7698 124.026L99.908 125.342C100.039 125.429 100.149 125.545 100.229 125.68C100.309 125.816 100.357 125.968 100.371 126.125C100.384 126.281 100.362 126.439 100.305 126.586C100.249 126.733 100.161 126.866 100.046 126.974Z" fill="#F69994"/>
<path d="M87.809 81.0921C88.3419 84.296 88.7892 90.1513 86.4932 92.2105C90.1027 94.2251 93.2565 96.9645 95.7563 100.257C99.7037 97.1447 96.4142 92.5066 96.4142 92.5066C92.8813 91.5526 93.0524 88.921 93.7498 86.4605L87.809 81.0921Z" fill="#F69994"/>
<path d="M98.2827 94.4737C98.2827 94.4737 97.9867 91.7566 96.4998 90.4145C95.2564 89.2895 88.7169 89.9145 86.6314 90.1447C86.4388 90.1674 86.2556 90.2401 86.0998 90.3555C85.944 90.4709 85.8211 90.6251 85.7432 90.8026L84.2498 93.9276L98.2827 94.4737Z" fill="#42B6E9"/>
<path opacity="0.8" d="M98.2827 94.4737C98.2827 94.4737 97.9867 91.7566 96.4998 90.4145C95.2564 89.2895 88.7169 89.9145 86.6314 90.1447C86.4388 90.1674 86.2556 90.2401 86.0998 90.3555C85.944 90.4709 85.8211 90.6251 85.7432 90.8026L84.2498 93.9276L98.2827 94.4737Z" fill="white"/>
<path d="M80.1643 93.0461C76.1314 94.3618 75.263 99.7698 75.6314 103.98L83.7695 108.987C83.7695 108.987 85.7432 102.836 85.7432 99.5592C85.7103 96.0526 82.8945 92.1579 80.1643 93.0461Z" fill="#42B6E9"/>
<path d="M81.7438 107.757C81.5449 107.755 81.3542 107.677 81.2109 107.539C81.1779 107.504 81.1471 107.467 81.1188 107.428C81.0893 107.385 81.065 107.338 81.0464 107.289C81.0464 107.243 81.0464 107.204 81.0004 107.151C80.9971 107.103 80.9971 107.055 81.0004 107.007C81.0002 106.907 81.0199 106.809 81.0583 106.718C81.0967 106.626 81.1531 106.543 81.2241 106.474C81.3282 106.359 81.4649 106.28 81.6157 106.245C81.7665 106.211 81.9243 106.224 82.0676 106.282C82.211 106.34 82.3332 106.44 82.4176 106.57C82.502 106.7 82.5447 106.852 82.5398 107.007C82.5431 107.055 82.5431 107.103 82.5398 107.151C82.5285 107.199 82.5131 107.245 82.4938 107.289C82.4773 107.338 82.4552 107.384 82.428 107.428L82.3293 107.539C82.2525 107.615 82.1607 107.673 82.0598 107.711C81.9589 107.748 81.8512 107.764 81.7438 107.757Z" fill="white"/>
<path d="M80.1775 107.237C80.0422 107.185 79.9246 107.095 79.8384 106.979C79.7522 106.862 79.7009 106.724 79.6906 106.579C79.5822 106.678 79.4469 106.743 79.3017 106.765C79.1565 106.787 79.008 106.766 78.8748 106.704C78.7412 106.642 78.6285 106.542 78.5503 106.417C78.4721 106.292 78.4317 106.147 78.4341 106C78.3189 106.093 78.1784 106.15 78.0307 106.163C77.8829 106.176 77.7347 106.144 77.6051 106.072C77.4769 106.002 77.3716 105.897 77.3016 105.768C77.2316 105.64 77.2 105.494 77.2104 105.349C77.0872 105.429 76.9431 105.472 76.7959 105.472C76.6487 105.472 76.5046 105.429 76.3814 105.349C76.2112 105.245 76.0889 105.078 76.0408 104.885C75.9928 104.692 76.023 104.487 76.1248 104.316C76.1762 104.231 76.2438 104.156 76.3239 104.097C76.404 104.038 76.4948 103.996 76.5914 103.972C76.6879 103.948 76.7882 103.944 76.8865 103.959C76.9848 103.974 77.0792 104.008 77.1643 104.059C77.2839 104.132 77.3815 104.236 77.4464 104.36C77.5113 104.484 77.5411 104.623 77.5327 104.763C77.6473 104.683 77.7816 104.637 77.921 104.629C78.0603 104.621 78.1992 104.651 78.3222 104.717C78.4419 104.781 78.5423 104.875 78.6129 104.991C78.6835 105.107 78.7217 105.239 78.7235 105.375C78.8326 105.289 78.9633 105.234 79.1012 105.217C79.2392 105.199 79.3793 105.22 79.5064 105.276C79.6326 105.336 79.7403 105.428 79.8179 105.544C79.8956 105.66 79.9402 105.795 79.9472 105.934C80.0531 105.843 80.1818 105.782 80.3196 105.757C80.4575 105.733 80.5993 105.746 80.7301 105.796C80.9156 105.871 81.0639 106.016 81.1428 106.199C81.2217 106.383 81.2247 106.59 81.1512 106.776C81.0964 106.918 80.9998 107.04 80.874 107.126C80.7483 107.212 80.5994 107.257 80.4472 107.257C80.3568 107.265 80.2657 107.258 80.1775 107.237Z" fill="white"/>
<path d="M75.6581 104.737C75.6079 104.743 75.557 104.743 75.5068 104.737C75.4587 104.729 75.4121 104.713 75.3686 104.691C75.3207 104.678 75.2758 104.656 75.2371 104.625L75.1252 104.533C75.0872 104.5 75.054 104.463 75.0265 104.421L74.9542 104.283L74.9081 104.145C74.9081 104.099 74.9081 104.046 74.9081 103.993C74.9081 103.941 74.9081 103.895 74.9081 103.849C74.9081 103.803 74.941 103.757 74.9542 103.704L75.0265 103.579C75.0555 103.536 75.0885 103.497 75.1252 103.461L75.2371 103.368C75.277 103.338 75.3213 103.313 75.3686 103.296C75.4135 103.279 75.4597 103.266 75.5068 103.257C75.6248 103.237 75.7456 103.245 75.8598 103.281C75.974 103.316 76.0784 103.378 76.1647 103.461C76.2014 103.497 76.2344 103.536 76.2634 103.579L76.3357 103.704C76.3357 103.757 76.3357 103.803 76.3752 103.849C76.3927 103.947 76.3927 104.047 76.3752 104.145C76.366 104.192 76.3528 104.238 76.3357 104.283L76.2634 104.421C76.2359 104.463 76.2027 104.5 76.1647 104.533C76.0271 104.662 75.8465 104.734 75.6581 104.737Z" fill="white"/>
<path d="M105.816 100.908C105.474 105.513 104.441 113.342 101.868 126.48L80.0658 125.822C80.6382 117.776 79.7763 111.776 77.8026 97.6842C77.7219 97.0752 77.7638 96.4562 77.9259 95.8637C78.0879 95.2712 78.3669 94.7171 78.7464 94.234C79.1259 93.7509 79.5982 93.3486 80.1355 93.0508C80.6728 92.753 81.2642 92.5657 81.875 92.5C83.2698 92.3553 84.8619 92.2368 86.4803 92.2039C89.7836 92.0687 93.0923 92.1676 96.3816 92.5C97.4408 92.6316 98.5395 92.796 99.5855 92.9737C101.426 93.2818 103.085 94.2662 104.238 95.7339C105.39 97.2016 105.953 99.0468 105.816 100.908Z" fill="#42B6E9"/>
<path d="M99.0924 75.1908C99.145 75.625 99.4148 75.9408 99.6977 75.9079C99.9806 75.875 100.165 75.5 100.112 75.0724C100.06 74.6447 99.7898 74.3158 99.5069 74.3553C99.224 74.3947 99.0398 74.7632 99.0924 75.1908Z" fill="#42484E"/>
<path d="M99.3881 74.3881L100.381 73.9671C100.381 73.9671 99.9539 74.8421 99.3881 74.3881Z" fill="#42484E"/>
<path d="M99.2436 75.8618C99.7423 76.7972 100.369 77.6586 101.105 78.421C100.905 78.6043 100.667 78.7416 100.408 78.8234C100.149 78.9052 99.8748 78.9296 99.6054 78.8947L99.2436 75.8618Z" fill="#F48380"/>
<path d="M99.1448 71.421C99.1655 71.3826 99.1764 71.3397 99.1764 71.296C99.1764 71.2524 99.1655 71.2094 99.1448 71.171C99.1306 71.1403 99.1105 71.1126 99.0856 71.0897C99.0608 71.0667 99.0316 71.0489 98.9998 71.0373C98.968 71.0257 98.9342 71.0205 98.9004 71.022C98.8665 71.0235 98.8333 71.0316 98.8027 71.046C98.4341 71.2113 98.1105 71.4624 97.8587 71.7783C97.6069 72.0942 97.4343 72.4657 97.3553 72.8618C97.3477 72.8963 97.3473 72.932 97.3542 72.9666C97.361 73.0013 97.3749 73.0341 97.395 73.0632C97.4151 73.0922 97.441 73.1167 97.4711 73.1353C97.5011 73.1538 97.5347 73.166 97.5696 73.171C97.6046 73.176 97.6402 73.1737 97.6742 73.1643C97.7083 73.1549 97.74 73.1386 97.7674 73.1164C97.7949 73.0941 97.8174 73.0665 97.8337 73.0351C97.8499 73.0038 97.8595 72.9694 97.8619 72.9342C97.9272 72.6212 98.0664 72.3283 98.2678 72.08C98.4692 71.8317 98.727 71.6351 99.0198 71.5066C99.0686 71.4902 99.1119 71.4606 99.1448 71.421Z" fill="#42484E"/>
<path d="M84.2501 75.0921C85.2107 80.3553 85.5067 82.579 88.5002 84.9605C93.0001 88.5526 99.2304 86.2303 99.862 80.8092C100.428 75.9276 98.7633 68.1711 93.3423 66.6842C92.1467 66.3514 90.8858 66.3299 89.6796 66.6218C88.4734 66.9136 87.3618 67.5092 86.4507 68.3518C85.5395 69.1944 84.859 70.256 84.4739 71.4358C84.0887 72.6155 84.0117 73.8742 84.2501 75.0921Z" fill="#F69994"/>
<path d="M95.8028 76.5658C96.6844 79.4408 98.7962 86.4342 94.1383 87.9605C90.5001 89.1776 79.0988 90.1447 77.7896 83.4671C76.4344 76.5658 82.5923 71.625 82.5923 71.625C82.5923 71.625 77.7107 67.625 80.8357 63.2697C84.862 57.6513 94.5067 60.8289 97.3751 64.7961C100.158 68.6776 95.8028 76.5658 95.8028 76.5658Z" fill="#42484E"/>
<path d="M86.9801 88.921C84.893 88.9157 82.8266 88.5069 80.8946 87.7171C78.3025 86.6052 76.7959 84.8816 76.5262 82.7368C75.6117 75.4539 82.388 71.4539 82.4472 71.4145L82.717 71.8816C82.6512 71.921 76.1841 75.75 77.0525 82.671C77.3617 85.125 79.4209 86.5 81.0985 87.2237C84.388 88.6447 88.6841 88.6381 89.717 87.8816L90.0393 88.3158C89.0937 88.7923 88.036 89.0015 86.9801 88.921Z" fill="#42484E"/>
<path d="M80.4933 70.6053C80.4275 71.5329 79.6578 72.8158 82.8881 73.2961C86.1183 73.7763 90.6052 73.7303 91.5262 72.954C92.4473 72.1776 93.3552 70.3224 91.4275 70.4868C89.4999 70.6513 80.5986 69.0132 80.4933 70.6053Z" fill="#42B6E9"/>
<path d="M94.0397 77.3816C94.2985 77.8647 94.6503 78.2918 95.0749 78.6384C95.4994 78.9851 95.9883 79.2443 96.5133 79.4013C97.9212 79.8158 98.6383 78.5658 98.2633 77.2237C97.9278 76.0198 96.7897 74.3553 95.3686 74.5329C95.0594 74.5766 94.766 74.6967 94.5151 74.8825C94.2641 75.0683 94.0635 75.3138 93.9315 75.5968C93.7995 75.8798 93.7402 76.1913 93.7591 76.5029C93.778 76.8146 93.8744 77.1166 94.0397 77.3816Z" fill="#F69994"/>
<path d="M128.033 187.5L133.204 187.401L130.697 174.5L125.526 174.592L128.033 187.5Z" fill="#F69994"/>
<path d="M131.908 181.882C133.276 187.033 138.302 192.487 138.302 192.487L131.125 190.665L127.993 186.184L128.539 185.007L131.908 181.882Z" fill="#F69994"/>
<path d="M126.809 184.276C126.795 184.879 126.83 185.482 126.914 186.079C127.217 188.211 128.158 193.855 128.158 193.855H128.645C128.424 192.129 128.292 190.392 128.25 188.651C128.316 187.25 129.223 189.724 130.316 191.125C131.408 192.526 133.375 193.803 136.552 193.901C140.276 194.02 141.763 193.862 140.566 192.934C139.368 192.007 136.835 191.395 136.835 191.395C134.785 190.521 133.039 189.06 131.816 187.197C130.616 185.521 129.038 184.15 127.21 183.197C126.895 183.257 126.829 183.822 126.809 184.276Z" fill="#42484E"/>
<path d="M146.342 169.967L152.941 170.171L145.559 159.197L140.987 163.105L146.342 169.967Z" fill="#F69994"/>
<path d="M147.908 165.309C152.704 167.539 160.408 167.105 160.408 167.105L154.164 172.112L148.816 171.717L148.25 170.526L147.908 165.309Z" fill="#F69994"/>
<path d="M146.895 171C147.323 171.424 147.787 171.809 148.283 172.151C150.033 173.368 154.757 176.493 154.757 176.493L155.059 176.112C153.651 175.1 152.296 174.015 151 172.862C150.013 171.855 152.388 172.862 154.092 172.934C155.796 173.007 157.948 172.362 159.981 169.928C162.369 167.079 163.171 165.803 161.75 166.105C160.329 166.408 158.316 167.993 158.316 167.993C156.423 169.006 154.256 169.384 152.132 169.072C150.157 168.871 148.164 169.179 146.342 169.967C146.198 170.237 146.573 170.678 146.895 171Z" fill="#42484E"/>
<path d="M94.3026 126.099C94.3026 126.099 129.605 120.875 133.257 129.928C139.618 145.671 148.599 163.711 148.599 163.711L144.257 167.296C144.257 167.296 128.868 153.053 123.395 137.23C116.849 139.349 96.046 146.158 88.421 146.158C80.2828 146.158 76.9539 139.217 79.8684 127.691C79.9988 127.191 80.2924 126.75 80.7024 126.436C81.1124 126.123 81.6154 125.956 82.1315 125.961C87.2828 125.987 94.3026 126.099 94.3026 126.099Z" fill="#42484E"/>
<path d="M97.6845 130.697C97.6845 130.697 126.632 129.822 126.902 140.092C127.309 157.066 132.092 181.388 132.092 181.388L126.829 181.882C126.829 181.882 118.191 162.533 115.908 145.947C105.586 146.605 96.0726 146.158 88.4476 146.158C79.895 146.158 79.1976 136.776 87.5134 125.829C92.5726 125.829 97.6845 130.697 97.6845 130.697Z" fill="#42484E"/>
<path d="M79.809 124.539L79.1971 126.48C79.1116 126.625 79.2892 126.789 79.5392 126.796L101.98 127.454C102.177 127.454 102.342 127.368 102.362 127.243L102.618 125.303C102.618 125.164 102.467 125.046 102.25 125.039L80.1708 124.382C80.102 124.374 80.0325 124.385 79.9691 124.413C79.9057 124.441 79.8506 124.484 79.809 124.539Z" fill="white"/>
<path d="M82.7038 127.099H82.1117C81.9933 127.099 81.9078 127.033 81.9144 126.961L82.2696 124.434C82.2696 124.362 82.3815 124.303 82.4999 124.303H83.092C83.2104 124.303 83.296 124.368 83.2894 124.441L82.9341 126.974C82.9275 127.046 82.8223 127.105 82.7038 127.099Z" fill="#42484E"/>
<path d="M100.316 127.632H99.7238C99.6053 127.632 99.5198 127.566 99.5264 127.493L99.8817 124.961C99.8817 124.888 99.9935 124.829 100.112 124.836H100.704C100.822 124.836 100.908 124.901 100.901 124.974L100.546 127.5C100.54 127.572 100.434 127.632 100.316 127.632Z" fill="#42484E"/>
<path d="M91.5064 127.362H90.9143C90.7959 127.362 90.7104 127.296 90.7235 127.224L91.0722 124.697C91.0722 124.618 91.1906 124.566 91.3091 124.566H91.9012C92.0196 124.566 92.1051 124.632 92.0919 124.704L91.7433 127.23C91.7301 127.309 91.6248 127.362 91.5064 127.362Z" fill="#42484E"/>
<path d="M118.381 102.842H132.48C132.588 102.836 132.695 102.857 132.792 102.902C132.89 102.948 132.975 103.016 133.039 103.102C133.104 103.187 133.147 103.288 133.165 103.394C133.182 103.5 133.173 103.609 133.138 103.711L127.875 121.789C127.835 121.932 127.749 122.057 127.629 122.144C127.51 122.231 127.365 122.275 127.217 122.27H113.118C113.012 122.275 112.905 122.254 112.809 122.209C112.712 122.164 112.627 122.097 112.563 122.012C112.498 121.927 112.455 121.828 112.437 121.722C112.419 121.617 112.427 121.509 112.46 121.408L117.724 103.329C117.762 103.185 117.848 103.059 117.968 102.971C118.087 102.882 118.233 102.837 118.381 102.842Z" fill="#42B6E9"/>
<path d="M118.645 103.507L132.342 103.836L126.934 120.882L113.237 120.559L118.645 103.507Z" fill="#D4D4D5"/>
<path d="M118.21 103.342L131.914 103.395L126.842 120.553L113.138 120.493L118.21 103.342Z" fill="white"/>
<path d="M105.856 103.697C105.856 104.237 105.935 104.914 105.987 105.533C106.04 106.151 106.112 106.796 106.198 107.421C106.349 108.684 106.56 109.928 106.816 111.145C107.07 112.336 107.402 113.51 107.81 114.658C108.02 115.211 108.244 115.75 108.467 116.257C108.586 116.52 108.724 116.757 108.856 117L109.06 117.342C109.06 117.342 109.02 117.342 109.06 117.342C109.315 117.577 109.618 117.754 109.948 117.862C110.469 118.064 111.006 118.225 111.553 118.342C112.781 118.611 114.025 118.805 115.277 118.921C117.849 119.171 120.54 119.296 123.171 119.349L123.441 122.02C120.702 122.557 117.922 122.867 115.132 122.947C113.682 122.995 112.231 122.936 110.79 122.77C110 122.674 109.22 122.518 108.454 122.303C107.477 122.043 106.568 121.574 105.79 120.928C105.531 120.701 105.298 120.447 105.092 120.171L104.731 119.671C104.507 119.336 104.29 119.013 104.073 118.664C103.676 118 103.325 117.31 103.02 116.599C102.427 115.237 101.947 113.829 101.586 112.388C101.224 110.987 100.947 109.566 100.757 108.132C100.658 107.421 100.586 106.711 100.527 105.993C100.467 105.276 100.421 104.592 100.415 103.783L105.856 103.697Z" fill="#F69994"/>
<path d="M104.026 95.4802C107.533 98.7697 106.658 107.388 106.658 107.388L99.9997 108.553C99.9997 108.553 95.8484 102.382 97.3089 99.7895C98.7695 97.1973 102.125 93.6908 104.026 95.4802Z" fill="#42B6E9"/>
<path d="M106.684 108.151C106.485 108.147 106.294 108.067 106.151 107.928C106.116 107.892 106.085 107.853 106.059 107.809C106.031 107.768 106.007 107.724 105.987 107.678C105.969 107.631 105.956 107.582 105.948 107.533C105.944 107.485 105.944 107.436 105.948 107.388C105.948 107.189 106.025 106.998 106.165 106.855C106.201 106.821 106.241 106.79 106.283 106.763C106.321 106.735 106.363 106.713 106.408 106.697C106.455 106.677 106.503 106.662 106.553 106.651C106.671 106.632 106.791 106.641 106.906 106.676C107.02 106.712 107.124 106.773 107.211 106.855C107.35 106.998 107.428 107.189 107.428 107.388C107.435 107.436 107.435 107.485 107.428 107.533C107.42 107.583 107.405 107.632 107.382 107.678C107.366 107.725 107.344 107.769 107.316 107.809C107.291 107.853 107.26 107.892 107.224 107.928C107.08 108.069 106.886 108.149 106.684 108.151Z" fill="white"/>
<path d="M100.579 108.553C100.563 108.352 100.626 108.153 100.756 107.999C100.885 107.845 101.07 107.749 101.27 107.73C101.41 107.718 101.55 107.744 101.676 107.807C101.801 107.87 101.907 107.966 101.981 108.086C102.025 107.953 102.105 107.835 102.211 107.744C102.318 107.654 102.448 107.594 102.586 107.572C102.721 107.559 102.858 107.582 102.981 107.639C103.105 107.695 103.211 107.784 103.29 107.895C103.325 107.76 103.397 107.638 103.498 107.542C103.599 107.447 103.726 107.382 103.862 107.355C104 107.326 104.143 107.336 104.276 107.383C104.408 107.431 104.525 107.515 104.612 107.625C104.64 107.487 104.706 107.36 104.802 107.257C104.899 107.155 105.022 107.082 105.158 107.046C105.254 107.02 105.353 107.014 105.451 107.026C105.55 107.039 105.644 107.071 105.73 107.121C105.815 107.17 105.89 107.236 105.95 107.315C106.01 107.394 106.054 107.483 106.079 107.579C106.105 107.675 106.112 107.776 106.098 107.875C106.085 107.973 106.053 108.069 106.003 108.155C105.952 108.241 105.886 108.317 105.806 108.377C105.727 108.437 105.636 108.481 105.54 108.507C105.398 108.543 105.248 108.538 105.109 108.491C104.97 108.445 104.848 108.358 104.757 108.243C104.723 108.387 104.65 108.518 104.545 108.621C104.44 108.725 104.309 108.797 104.165 108.829C104.02 108.856 103.87 108.84 103.734 108.784C103.597 108.728 103.48 108.634 103.395 108.513C103.358 108.656 103.279 108.784 103.169 108.883C103.059 108.981 102.923 109.045 102.777 109.066C102.631 109.087 102.483 109.065 102.35 109.003C102.217 108.941 102.104 108.842 102.027 108.717C101.977 108.856 101.888 108.978 101.772 109.069C101.655 109.159 101.516 109.215 101.369 109.23H101.316C101.132 109.225 100.957 109.154 100.821 109.029C100.686 108.905 100.6 108.735 100.579 108.553Z" fill="white"/>
<path d="M100 109.322H99.8489L99.7108 109.276L99.5792 109.211C99.5389 109.181 99.5015 109.148 99.4673 109.112C99.4293 109.079 99.3961 109.042 99.3686 109C99.3686 108.961 99.3226 108.914 99.2963 108.868C99.2792 108.821 99.266 108.773 99.2568 108.724C99.2533 108.675 99.2533 108.627 99.2568 108.579C99.2539 108.529 99.2539 108.478 99.2568 108.428C99.2669 108.381 99.2801 108.335 99.2963 108.289L99.3686 108.158C99.3961 108.116 99.4293 108.078 99.4673 108.046L99.5792 107.947L99.7108 107.882L99.8489 107.836C99.9674 107.816 100.089 107.825 100.203 107.861C100.318 107.898 100.422 107.961 100.507 108.046C100.545 108.078 100.578 108.116 100.605 108.158L100.678 108.289L100.724 108.428C100.724 108.48 100.724 108.533 100.724 108.579C100.724 108.625 100.724 108.678 100.724 108.724C100.724 108.77 100.691 108.822 100.678 108.868C100.665 108.914 100.632 108.961 100.605 109C100.578 109.042 100.545 109.079 100.507 109.112C100.372 109.246 100.19 109.321 100 109.322Z" fill="white"/>
<path d="M129.454 116.553L127.132 116.401C126.551 116.36 125.972 116.513 125.487 116.836L121.217 119.737L121.184 121.546C122.553 123.138 125.586 121.711 125.586 121.711L128.402 121.618C128.626 121.612 128.843 121.538 129.025 121.407C129.207 121.276 129.345 121.093 129.421 120.882L130.441 118.092C130.506 117.926 130.53 117.747 130.512 117.57C130.495 117.392 130.435 117.222 130.339 117.072C130.243 116.921 130.113 116.796 129.959 116.706C129.805 116.616 129.632 116.563 129.454 116.553Z" fill="#F69994"/>
<path d="M81.2043 195.77H81.8622C81.9923 195.759 82.1143 195.702 82.206 195.609C82.2978 195.516 82.3532 195.393 82.3622 195.263L86.2372 168.289H83.2898L80.724 195.092C80.6991 195.245 80.7356 195.402 80.8254 195.529C80.9152 195.656 81.0513 195.742 81.2043 195.77Z" fill="#42B6E9"/>
<path opacity="0.3" d="M81.2043 195.77H81.8622C81.9923 195.759 82.1143 195.702 82.206 195.609C82.2978 195.516 82.3532 195.393 82.3622 195.263L86.2372 168.289H83.2898L80.724 195.092C80.6991 195.245 80.7356 195.402 80.8254 195.529C80.9152 195.656 81.0513 195.742 81.2043 195.77Z" fill="#263238"/>
<path d="M73.1251 195.77H73.783C73.9131 195.759 74.0351 195.702 74.1269 195.609C74.2186 195.516 74.274 195.393 74.283 195.263L78.158 168.289H75.2106L72.6448 195.092C72.6199 195.245 72.6564 195.402 72.7462 195.529C72.836 195.656 72.9721 195.742 73.1251 195.77Z" fill="#42B6E9"/>
<path opacity="0.3" d="M73.1251 195.77H73.783C73.9131 195.759 74.0351 195.702 74.1269 195.609C74.2186 195.516 74.274 195.393 74.283 195.263L78.158 168.289H75.2106L72.6448 195.092C72.6199 195.245 72.6564 195.402 72.7462 195.529C72.836 195.656 72.9721 195.742 73.1251 195.77Z" fill="#263238"/>
<path d="M118.138 195.77H117.48C117.35 195.759 117.228 195.702 117.136 195.609C117.045 195.516 116.989 195.393 116.98 195.263L113.105 168.289H116.046L118.618 195.092C118.643 195.245 118.607 195.402 118.517 195.529C118.427 195.656 118.291 195.742 118.138 195.77Z" fill="#42B6E9"/>
<path opacity="0.3" d="M118.138 195.77H117.48C117.35 195.759 117.228 195.702 117.136 195.609C117.045 195.516 116.989 195.393 116.98 195.263L113.105 168.289H116.046L118.618 195.092C118.643 195.245 118.607 195.402 118.517 195.529C118.427 195.656 118.291 195.742 118.138 195.77Z" fill="#263238"/>
<path d="M126.217 195.77H125.559C125.429 195.759 125.307 195.702 125.216 195.609C125.124 195.516 125.068 195.393 125.059 195.263L121.184 168.289H124.125L126.698 195.092C126.723 195.245 126.686 195.402 126.596 195.529C126.506 195.656 126.37 195.742 126.217 195.77Z" fill="#42B6E9"/>
<path opacity="0.3" d="M126.217 195.77H125.559C125.429 195.759 125.307 195.702 125.216 195.609C125.124 195.516 125.068 195.393 125.059 195.263L121.184 168.289H124.125L126.698 195.092C126.723 195.245 126.686 195.402 126.596 195.529C126.506 195.656 126.37 195.742 126.217 195.77Z" fill="#263238"/>
<path d="M136.684 136.283H116.855C113.336 124.066 100.671 114.421 87.7039 114.421H81.2632C67.6908 114.421 58.9342 124.98 61.6974 138.013C62.2192 140.408 63.0694 142.719 64.2237 144.882L67.3487 163.816C67.7566 166.263 69.7039 168.25 71.7105 168.25H131.408C133.382 168.25 135.355 166.276 135.77 163.816L139.586 140.684C139.987 138.263 138.691 136.283 136.684 136.283Z" fill="#42B6E9"/>
<path opacity="0.5" d="M136.684 136.283H116.855C113.336 124.066 100.671 114.421 87.7039 114.421H81.2632C67.6908 114.421 58.9342 124.98 61.6974 138.013C62.2192 140.408 63.0694 142.719 64.2237 144.882L67.3487 163.816C67.7566 166.263 69.7039 168.25 71.7105 168.25H131.408C133.382 168.25 135.355 166.276 135.77 163.816L139.586 140.684C139.987 138.263 138.691 136.283 136.684 136.283Z" fill="white"/>
<path d="M139.947 47.4276H135.394V47.9869H139.947V47.4276Z" fill="#77C47B"/>
<path d="M118.658 53.9934H118.105V51.2566C118.105 50.2422 118.508 49.2693 119.225 48.5514C119.941 47.8336 120.913 47.4294 121.928 47.4276H132.086V47.9869H121.928C121.055 47.9869 120.219 48.3334 119.602 48.9503C118.985 49.5672 118.638 50.4039 118.638 51.2763L118.658 53.9934Z" fill="#77C47B"/>
<path d="M122.263 49.3816H172.368C172.954 49.3816 173.517 49.6145 173.931 50.029C174.346 50.4436 174.579 51.0058 174.579 51.5921V70.8355C174.572 71.4178 174.336 71.974 173.922 72.3839C173.509 72.7939 172.951 73.0246 172.368 73.0263H122.263C121.972 73.0263 121.683 72.9689 121.414 72.8575C121.145 72.7461 120.901 72.5828 120.695 72.3769C120.489 72.171 120.326 71.9266 120.215 71.6576C120.103 71.3886 120.046 71.1003 120.046 70.8092V51.5921C120.046 51.3012 120.103 51.0133 120.215 50.7446C120.326 50.476 120.49 50.232 120.696 50.0267C120.902 49.8213 121.146 49.6586 121.415 49.5479C121.684 49.4372 121.972 49.3807 122.263 49.3816Z" fill="#77C47B"/>
<path d="M170.322 62.5H124.342C124.009 62.5 123.689 62.3676 123.453 62.132C123.218 61.8963 123.085 61.5767 123.085 61.2434C123.081 61.0757 123.11 60.9087 123.171 60.7524C123.233 60.5962 123.324 60.4537 123.442 60.3335C123.559 60.2134 123.699 60.1178 123.853 60.0526C124.008 59.9875 124.174 59.9539 124.342 59.9539H170.335C170.669 59.9557 170.989 60.0895 171.224 60.3262C171.46 60.5629 171.592 60.8832 171.592 61.2171C171.595 61.3852 171.564 61.5521 171.501 61.7081C171.438 61.8641 171.345 62.0059 171.227 62.1254C171.108 62.2449 170.968 62.3396 170.812 62.4039C170.657 62.4682 170.49 62.5009 170.322 62.5Z" fill="white"/>
<path d="M160.48 67.7039H124.342C124.177 67.7048 124.013 67.6729 123.86 67.61C123.707 67.5472 123.569 67.4547 123.452 67.3378C123.335 67.221 123.242 67.0821 123.179 66.9292C123.117 66.7764 123.085 66.6126 123.086 66.4473C123.085 66.2818 123.117 66.1177 123.179 65.9644C123.242 65.8112 123.334 65.6719 123.451 65.5545C123.568 65.4372 123.707 65.344 123.86 65.2804C124.013 65.2169 124.177 65.1842 124.342 65.1842H160.526C160.86 65.1859 161.18 65.3198 161.415 65.5565C161.651 65.7932 161.783 66.1135 161.783 66.4473C161.783 66.6163 161.749 66.7836 161.683 66.9391C161.617 67.0946 161.52 67.2353 161.399 67.3526C161.277 67.4699 161.133 67.5614 160.975 67.6218C160.818 67.6822 160.649 67.7101 160.48 67.7039Z" fill="white"/>
<path d="M139.842 57.2368H124.342C124.177 57.2368 124.013 57.2041 123.86 57.1406C123.707 57.077 123.568 56.9839 123.451 56.8665C123.334 56.7491 123.242 56.6098 123.179 56.4566C123.117 56.3034 123.085 56.1392 123.086 55.9737C123.087 55.6416 123.22 55.3236 123.456 55.0894C123.691 54.8552 124.01 54.7237 124.342 54.7237H139.855C140.188 54.7254 140.507 54.8584 140.742 55.0936C140.977 55.3289 141.11 55.6475 141.112 55.9803C141.111 56.1461 141.077 56.3102 141.013 56.4632C140.949 56.6161 140.855 56.7548 140.737 56.8715C140.619 56.9882 140.48 57.0805 140.326 57.1432C140.172 57.2059 140.008 57.2377 139.842 57.2368Z" fill="white"/>
<path d="M160.401 57.2368H144.888C144.722 57.2368 144.559 57.2041 144.406 57.1405C144.253 57.077 144.114 56.9838 143.997 56.8665C143.88 56.7491 143.788 56.6098 143.725 56.4566C143.662 56.3033 143.631 56.1392 143.631 55.9737C143.631 55.6404 143.764 55.3208 144 55.0851C144.235 54.8495 144.555 54.7171 144.888 54.7171H160.401C160.734 54.7188 161.053 54.8518 161.288 55.087C161.523 55.3223 161.656 55.6409 161.658 55.9737C161.658 56.3075 161.526 56.6278 161.29 56.8645C161.055 57.1012 160.735 57.2351 160.401 57.2368Z" fill="white"/>
<path d="M123.072 71.5395V77.5724C123.072 77.8337 123.144 78.0899 123.282 78.3118C123.42 78.5338 123.618 78.7126 123.852 78.8278C124.087 78.943 124.349 78.99 124.609 78.9634C124.869 78.9369 125.116 78.8379 125.322 78.6776L134.572 71.5197L123.072 71.5395Z" fill="#77C47B"/>
<path d="M201.388 19.4934H150.592C150.095 19.4951 149.619 19.6932 149.268 20.0445C148.917 20.3958 148.719 20.8717 148.717 21.3684V41.2895C148.719 41.7862 148.917 42.2621 149.268 42.6134C149.619 42.9646 150.095 43.1627 150.592 43.1645H190.723L198.026 48.7895C198.232 48.9497 198.48 49.0487 198.74 49.0752C199 49.1018 199.262 49.0548 199.496 48.9396C199.731 48.8244 199.928 48.6456 200.066 48.4237C200.204 48.2017 200.277 47.9455 200.276 47.6842V43.1645H201.421C201.916 43.161 202.391 42.9621 202.74 42.6111C203.09 42.26 203.287 41.7851 203.289 41.2895V21.3684C203.288 21.1202 203.238 20.8746 203.142 20.6458C203.046 20.417 202.906 20.2094 202.729 20.0352C202.552 19.8609 202.343 19.7233 202.112 19.6303C201.882 19.5373 201.636 19.4908 201.388 19.4934Z" fill="white"/>
<path d="M198.849 49.3421C198.478 49.3421 198.117 49.2196 197.823 48.9934L190.625 43.4211H150.592C150.022 43.4193 149.476 43.1921 149.073 42.789C148.67 42.386 148.443 41.8398 148.441 41.2697V21.3684C148.443 20.7984 148.67 20.2522 149.073 19.8491C149.476 19.4461 150.022 19.2188 150.592 19.2171H201.389C201.959 19.2188 202.505 19.4461 202.908 19.8491C203.311 20.2522 203.538 20.7984 203.54 21.3684V41.2895C203.533 41.8561 203.303 42.3972 202.901 42.796C202.498 43.1949 201.955 43.4194 201.389 43.4211H200.527V47.6645C200.527 47.9786 200.439 48.2866 200.273 48.5531C200.107 48.8196 199.868 49.0338 199.586 49.1711C199.357 49.285 199.105 49.3436 198.849 49.3421ZM150.592 19.7368C150.168 19.7368 149.762 19.9053 149.462 20.2051C149.162 20.5049 148.994 20.9115 148.994 21.3355V41.2895C148.994 41.4991 149.035 41.7067 149.116 41.9003C149.196 42.0939 149.314 42.2697 149.462 42.4176C149.611 42.5655 149.787 42.6827 149.981 42.7623C150.175 42.8419 150.383 42.8824 150.592 42.8816H190.79L198.139 48.5724C198.303 48.7191 198.507 48.814 198.725 48.8451C198.943 48.8763 199.166 48.8423 199.365 48.7474C199.564 48.6525 199.73 48.501 199.843 48.3118C199.956 48.1227 200.011 47.9043 200 47.6842V42.8816H201.421C201.631 42.8824 201.839 42.8419 202.033 42.7623C202.227 42.6827 202.403 42.5655 202.551 42.4176C202.7 42.2697 202.818 42.0939 202.898 41.9003C202.979 41.7067 203.02 41.4991 203.02 41.2895V21.3684C203.02 20.9444 202.852 20.5378 202.552 20.238C202.252 19.9382 201.845 19.7697 201.421 19.7697L150.592 19.7368Z" fill="#77C47B"/>
<path d="M174.908 32.5855H198.987C199.152 32.5864 199.316 32.5545 199.469 32.4916C199.622 32.4288 199.761 32.3363 199.878 32.2194C199.994 32.1025 200.087 31.9637 200.15 31.8108C200.213 31.658 200.244 31.4942 200.244 31.3289C200.244 31.1634 200.213 30.9992 200.15 30.846C200.087 30.6928 199.995 30.5535 199.878 30.4361C199.761 30.3188 199.622 30.2256 199.469 30.162C199.317 30.0985 199.153 30.0658 198.987 30.0658H174.908C174.742 30.0658 174.578 30.0984 174.425 30.1619C174.271 30.2254 174.132 30.3184 174.015 30.4357C173.898 30.553 173.805 30.6923 173.741 30.8455C173.678 30.9988 173.645 31.163 173.645 31.3289C173.645 31.4945 173.678 31.6584 173.741 31.8113C173.805 31.9642 173.898 32.103 174.015 32.2198C174.133 32.3366 174.272 32.429 174.425 32.4917C174.578 32.5545 174.743 32.5864 174.908 32.5855Z" fill="#77C47B"/>
<path d="M158.092 32.5855H170.013C170.179 32.5864 170.343 32.5545 170.496 32.4917C170.649 32.429 170.788 32.3366 170.906 32.2198C171.023 32.103 171.116 31.9642 171.18 31.8113C171.243 31.6584 171.276 31.4945 171.276 31.3289C171.276 30.9939 171.143 30.6726 170.906 30.4357C170.669 30.1988 170.348 30.0658 170.013 30.0658H158.092C157.926 30.0658 157.762 30.0985 157.609 30.162C157.457 30.2256 157.318 30.3188 157.201 30.4361C157.084 30.5535 156.992 30.6928 156.929 30.846C156.866 30.9992 156.834 31.1634 156.835 31.3289C156.834 31.4942 156.866 31.658 156.929 31.8108C156.992 31.9637 157.085 32.1025 157.201 32.2194C157.318 32.3363 157.457 32.4288 157.61 32.4916C157.763 32.5545 157.927 32.5864 158.092 32.5855Z" fill="#77C47B"/>
<path d="M162.704 37.8158L199.112 37.8158C199.737 37.8158 200.244 37.3092 200.244 36.6842V36.4276C200.244 35.8027 199.737 35.2961 199.112 35.2961L162.704 35.2961C162.079 35.2961 161.573 35.8027 161.573 36.4276V36.6842C161.573 37.3092 162.079 37.8158 162.704 37.8158Z" fill="#77C47B"/>
<path d="M152.993 27.3553H198.987C199.152 27.3561 199.316 27.3242 199.469 27.2614C199.621 27.1985 199.76 27.106 199.877 26.9892C199.994 26.8723 200.086 26.7334 200.149 26.5806C200.212 26.4277 200.244 26.2639 200.243 26.0987C200.244 25.9331 200.212 25.769 200.149 25.6158C200.087 25.4626 199.994 25.3233 199.877 25.2059C199.761 25.0885 199.622 24.9954 199.469 24.9318C199.316 24.8682 199.152 24.8355 198.987 24.8355H152.993C152.659 24.8373 152.34 24.9711 152.104 25.2078C151.869 25.4445 151.737 25.7648 151.737 26.0987C151.737 26.4319 151.869 26.7516 152.105 26.9872C152.34 27.2229 152.66 27.3553 152.993 27.3553Z" fill="#77C47B"/>
<path d="M116.792 55.1258V71.3763C116.792 73.0998 116.697 74.8044 116.508 76.4901C116.337 78.1757 116.091 79.9277 115.769 81.7459H110.485C110.163 79.9277 109.907 78.1757 109.718 76.4901C109.548 74.8044 109.462 73.0998 109.462 71.3763V55.1258H116.792ZM108.411 92.2292C108.411 91.6042 108.525 91.0171 108.752 90.4678C108.998 89.8996 109.33 89.4166 109.746 89.0189C110.163 88.6022 110.646 88.2802 111.195 88.0529C111.763 87.8067 112.379 87.6836 113.042 87.6836C113.686 87.6836 114.283 87.8067 114.832 88.0529C115.4 88.2802 115.892 88.6022 116.309 89.0189C116.726 89.4166 117.057 89.8996 117.303 90.4678C117.55 91.0171 117.673 91.6042 117.673 92.2292C117.673 92.8732 117.55 93.4698 117.303 94.019C117.057 94.5683 116.726 95.0513 116.309 95.468C115.892 95.8657 115.4 96.1782 114.832 96.4055C114.283 96.6328 113.686 96.7464 113.042 96.7464C112.379 96.7464 111.763 96.6328 111.195 96.4055C110.646 96.1782 110.163 95.8657 109.746 95.468C109.33 95.0513 108.998 94.5683 108.752 94.019C108.525 93.4698 108.411 92.8732 108.411 92.2292Z" fill="#78C47B"/>
<path d="M207.757 28.5733C208.439 27.9861 209.168 27.4369 209.944 26.9255C210.74 26.4141 211.592 25.969 212.501 25.5902C213.429 25.2114 214.424 24.9178 215.484 24.7095C216.564 24.4822 217.719 24.3686 218.95 24.3686C220.655 24.3686 222.199 24.6053 223.581 25.0788C224.964 25.5334 226.148 26.1963 227.132 27.0675C228.117 27.9198 228.875 28.9521 229.405 30.1642C229.955 31.3764 230.229 32.7306 230.229 34.2269C230.229 35.6663 230.021 36.9163 229.604 37.977C229.206 39.0187 228.695 39.9278 228.07 40.7043C227.464 41.4809 226.792 42.1532 226.053 42.7214C225.314 43.2896 224.613 43.82 223.951 44.3124C223.288 44.8048 222.71 45.2973 222.218 45.7897C221.744 46.2632 221.45 46.7935 221.337 47.3807L220.627 51.4433H215.257L214.717 46.8409C214.585 45.9318 214.698 45.1458 215.058 44.4829C215.418 43.801 215.901 43.1855 216.507 42.6362C217.113 42.068 217.786 41.5282 218.524 41.0168C219.282 40.4865 219.983 39.9278 220.627 39.3406C221.289 38.7346 221.839 38.0622 222.274 37.3235C222.729 36.5659 222.956 35.6758 222.956 34.653C222.956 33.403 222.521 32.4086 221.649 31.67C220.797 30.9313 219.661 30.562 218.24 30.562C217.198 30.562 216.318 30.6756 215.598 30.9029C214.897 31.1302 214.291 31.3859 213.78 31.67C213.268 31.9351 212.833 32.1813 212.473 32.4086C212.113 32.6359 211.772 32.7495 211.45 32.7495C210.73 32.7495 210.191 32.437 209.831 31.812L207.757 28.5733ZM213.07 61.9266C213.07 61.3016 213.183 60.7144 213.41 60.1652C213.657 59.597 213.988 59.114 214.405 58.7163C214.821 58.2996 215.304 57.9776 215.854 57.7503C216.422 57.5041 217.037 57.381 217.7 57.381C218.344 57.381 218.95 57.5041 219.519 57.7503C220.087 57.9776 220.579 58.2996 220.996 58.7163C221.413 59.114 221.735 59.597 221.962 60.1652C222.208 60.7144 222.331 61.3016 222.331 61.9266C222.331 62.5706 222.208 63.1672 221.962 63.7164C221.735 64.2657 221.413 64.7487 220.996 65.1653C220.579 65.5631 220.087 65.8756 219.519 66.1029C218.95 66.3302 218.344 66.4438 217.7 66.4438C217.037 66.4438 216.422 66.3302 215.854 66.1029C215.304 65.8756 214.821 65.5631 214.405 65.1653C213.988 64.7487 213.657 64.2657 213.41 63.7164C213.183 63.1672 213.07 62.5706 213.07 61.9266Z" fill="#78C47B"/>
<path d="M102.46 54.8158H98.5131" stroke="#9BCEE2" stroke-miterlimit="10" stroke-linecap="round"/>
<path d="M95.1711 54.8158H51.0922C50.0767 54.8158 49.1027 55.2192 48.3847 55.9372C47.6666 56.6553 47.2632 57.6292 47.2632 58.6447V125.697C47.2632 126.713 47.6666 127.687 48.3847 128.405C49.1027 129.123 50.0767 129.526 51.0922 129.526H51.329" stroke="#9BCEE2" stroke-miterlimit="10" stroke-linecap="round" stroke-dasharray="12.19 5.08"/>
<path d="M53.0264 129.526H56.9738" stroke="#9BCEE2" stroke-miterlimit="10" stroke-linecap="round"/>
</g>
<defs>
<clipPath id="clip0">
<rect width="294.737" height="200" fill="white"/>
</clipPath>
</defs>
</svg>
