<svg xmlns="http://www.w3.org/2000/svg" xmlns:xlink="http://www.w3.org/1999/xlink" viewBox="0 0 200 150"><defs><style>.cls-1{fill:#f59b00;}.cls-2{fill:#fff0d6;}.cls-3{fill:url(#linear-gradient);}.cls-4{fill:#56403d;}.cls-5{fill:url(#linear-gradient-2);}.cls-6{fill:url(#linear-gradient-3);}.cls-7{fill:#a8e8ff;}.cls-8{fill:#3a9b7d;}.cls-9{fill:#52eb85;}.cls-10{fill:#ffcb70;}.cls-11{fill:#ffae21;}.cls-12{fill:#59d3ff;}.cls-13{fill:#fff;}.cls-14{fill:#ffda99;}.cls-15{fill:#99e4ff;}.cls-16{fill:#443f35;}.cls-17{fill:#ffc359;}.cls-18{fill:#ffe8bf;}.cls-19{fill:#b5c3de;}.cls-20{fill:#1c479b;}.cls-21{opacity:0.27;isolation:isolate;}.cls-22{fill:#ffa200;}.cls-23{fill:#e2e2e2;}.cls-24{fill:#ffc663;}.cls-25,.cls-32{fill:none;stroke-miterlimit:10;stroke-width:0.5px;}.cls-25{stroke:#ffae21;stroke-linecap:round;stroke-dasharray:1.53 2.55;}.cls-26{fill:#1ac2ff;}.cls-27{fill:#ffebc7;}.cls-28{fill:#fff8eb;}.cls-29{fill:#0bf;}.cls-30{fill:#69d7ff;}.cls-31{fill:#d4f3ff;}.cls-32{stroke:#fff;}.cls-33{fill:#ededf9;}</style><linearGradient id="linear-gradient" x1="42.2" y1="1110.62" x2="33.25" y2="1099.44" gradientTransform="matrix(1, 0, 0, -1, 0, 1172)" gradientUnits="userSpaceOnUse"><stop offset="0" stop-color="#ffdda1"/><stop offset="0.99" stop-color="#fff0d6"/></linearGradient><linearGradient id="linear-gradient-2" x1="67.62" y1="1078.39" x2="64.96" y2="1073.88" xlink:href="#linear-gradient"/><linearGradient id="linear-gradient-3" x1="118.63" y1="1056.6" x2="106.07" y2="1046.37" xlink:href="#linear-gradient"/></defs><g id="Layer_2" data-name="Layer 2"><path class="cls-1" d="M194.54,95.31q.33,3.15.64,6.3l-.9,1.41-6,3.35"/><path class="cls-1" d="M4.82,82.57l.64,6.69,5,3.22"/><path class="cls-1" d="M89.17,36.4,7.94,83.66a5.16,5.16,0,0,0-1.87,7.07A5.08,5.08,0,0,0,8,92.64l99.45,55.65a8.18,8.18,0,0,0,7.87.07l76.4-41.09a6.23,6.23,0,0,0,.2-10.86Z"/><path class="cls-2" d="M88.63,30.48,7.39,77.74a5.18,5.18,0,0,0,.07,9l99.45,55.65a8.2,8.2,0,0,0,7.88.06l76.4-41.09a6.23,6.23,0,0,0,.19-10.86Z"/><path class="cls-3" d="M32.49,63.35l-10,5.83s.56,8.52,10.84,7.2L51.81,66.23"/><path class="cls-4" d="M97.38,67.75l-9.64,4.63a2.22,2.22,0,0,0-.16,3.92l22.85,13.32a2.21,2.21,0,0,0,3-.71L119,80.27"/><polyline class="cls-5" points="75.48 96.82 37.55 76.85 31.76 80.63 93.6 114.48 102.12 108.92"/><path class="cls-6" d="M108.17,115.75l-9,5.35A48.79,48.79,0,0,0,112,129.66l8.38-5.47"/><polyline class="cls-7" points="107.3 111.91 107.3 116.13 120.33 124.19 135.96 114.64 135.96 111.05"/><polyline class="cls-8" points="107.3 111.91 107.3 116.13 120.33 124.19 135.96 114.64 135.96 111.05"/><polygon class="cls-9" points="135.96 111.05 122.69 103.11 107.3 111.91 120.58 119.98 135.96 111.05"/><path class="cls-10" d="M123.36,113.9a7.15,7.15,0,0,1-.87-1.36,4,4,0,0,1,.88-1.81,7.48,7.48,0,0,1,1.47,1"/><path class="cls-11" d="M123.5,111.38c0,.12-.43,2.43-.14,2.52a9.63,9.63,0,0,0,1.86,0,21.41,21.41,0,0,0,.21-2.52"/><path class="cls-10" d="M125.69,108.43l-2.32.65s-.39,2.15-.09,2.46a12.57,12.57,0,0,0,1.16.73,16.08,16.08,0,0,0,.12,2.19,1.48,1.48,0,0,0,.42,0c.1-.76.23-2.31.23-2.31s.68-.24.72-.45S125.69,108.43,125.69,108.43Z"/><path class="cls-10" d="M130.44,124.81a8.55,8.55,0,0,1-1.09-1.69,4.83,4.83,0,0,1,1.1-2.27,9.72,9.72,0,0,1,1.83,1.22"/><path class="cls-11" d="M130.61,121.66c0,.15-.54,3-.17,3.15a11.24,11.24,0,0,0,2.32,0,27.87,27.87,0,0,0,.26-3.15"/><path class="cls-10" d="M133.35,118l-2.9.81c0,.07-.48,2.69-.12,3.08a13,13,0,0,0,1.45.9,20.63,20.63,0,0,0,.15,2.73,1.1,1.1,0,0,0,.51,0c.11-1,.28-2.88.28-2.88s.85-.29.89-.56S133.35,118,133.35,118Z"/><path class="cls-12" d="M149.82,45.42,72.94,1.13a3.46,3.46,0,0,0-5.2,3V50.22a2.88,2.88,0,0,0,1.44,2.52L151.13,100a1.85,1.85,0,0,0,2.54-.67,1.94,1.94,0,0,0,.25-.94V52.51A8.19,8.19,0,0,0,149.82,45.42Z"/><path class="cls-13" d="M73,4.61,147.51,47.5A5.22,5.22,0,0,1,150.13,52V86.57a1.89,1.89,0,0,1-1.89,1.89,1.94,1.94,0,0,1-.94-.25l-76-43.63A1.85,1.85,0,0,1,70.35,43V6.13a1.75,1.75,0,0,1,1.77-1.74A1.87,1.87,0,0,1,73,4.61Z"/><path class="cls-7" d="M68.41,55.71c1.37-.23,17.25,9.71,17.25,9.71V69.3L79.15,73l-17.7-9.7V58.68Z"/><path class="cls-14" d="M68.41,55.71c1.37-.23,17.25,9.71,17.25,9.71V69.3L79.15,73l-17.7-9.7V58.68Z"/><path class="cls-15" d="M57.68,65.35,37.53,76.85a1.38,1.38,0,0,0,0,2.39l55.88,32.14a4.49,4.49,0,0,0,4.46,0l18.81-10.87a1.44,1.44,0,0,0,0-2.52L60.16,65.34A2.55,2.55,0,0,0,57.68,65.35Z"/><path class="cls-7" d="M70.59,103a1.66,1.66,0,0,0-.93-1.23l-3-1.72-4.61-2.67-5.51-3.19-5.86-3.4L45,87.48l-4.92-2.85-3.65-2.11-1.91-1.11s-.07,0-.11,0a1.36,1.36,0,0,0-1.66,1,1.34,1.34,0,0,0,0,.69,4.37,4.37,0,0,0,1.64,2.15,66.16,66.16,0,0,0,7,4.37v-.86c-1.62-.89-5.12-2.89-6.59-4.4l.7.4,1.93,1.13,2.9,1.7L44,89.72l4.1,2.38,4.3,2.52,4.26,2.5,4,2.31,3.42,2L66.62,103a8.87,8.87,0,0,0,2.6,1.28,1.28,1.28,0,0,0,1.37-1.18Z"/><path class="cls-16" d="M70.59,103a1.66,1.66,0,0,0-.93-1.23l-3-1.72-4.61-2.67-5.51-3.19-5.86-3.4L45,87.48l-4.92-2.85-3.65-2.11-1.91-1.11s-.07,0-.11,0a1.36,1.36,0,0,0-1.66,1,1.34,1.34,0,0,0,0,.69,4.37,4.37,0,0,0,1.64,2.15,66.16,66.16,0,0,0,7,4.37v-.86c-1.62-.89-5.12-2.89-6.59-4.4l.7.4,1.93,1.13,2.9,1.7L44,89.72l4.1,2.38,4.3,2.52,4.26,2.5,4,2.31,3.42,2L66.62,103a8.87,8.87,0,0,0,2.6,1.28,1.28,1.28,0,0,0,1.37-1.18Z"/><ellipse class="cls-17" cx="103.96" cy="67.94" rx="1.62" ry="1.85" transform="translate(-10.97 20.88) rotate(-10.9)"/><path class="cls-9" d="M104.25,29,126,41.54a1.43,1.43,0,0,1,.7,1.28l-.75,19.5a1.41,1.41,0,0,1-1.47,1.37,1.48,1.48,0,0,1-.65-.19l-21-12.06a1.41,1.41,0,0,1-.71-1.23v-20A1.42,1.42,0,0,1,104.25,29Z"/><path class="cls-18" d="M112,32.37v0l-.08-.68c-.84,0-1.32.16-2.16.17a2.92,2.92,0,0,0-.79,1.56c0,.41,0,1,.56.94.08.39.31.9.77.79l.06,0c0,.26.11.5.36.58s.4-.06.5-.29c.09.34.25.87.6.86s.5-.7.38-1.39A17,17,0,0,0,112,32.37Z"/><path class="cls-11" d="M109.68,33.14a3.11,3.11,0,0,0-.17,1.17c0,.13.2.13.19,0a3.05,3.05,0,0,1,.17-1.12C109.91,33.07,109.72,33,109.68,33.14Z"/><path class="cls-11" d="M110.39,33.52l-.08,1.62a.1.1,0,1,0,.19,0l.08-1.62A.1.1,0,0,0,110.39,33.52Z"/><path class="cls-11" d="M111.08,33.29v2.14a.1.1,0,1,0,.2,0V33.29a.1.1,0,0,0-.2,0Z"/><path class="cls-18" d="M111.94,31.64A3.88,3.88,0,0,1,113,34.06l-.91-.57Z"/><path class="cls-18" d="M120.42,36.21s-.68.12-.7.11c-.58.37-2.07,1.13-2.69,1.42-.36.18-1.27.56-1.07,1.12.1.29.4.35.78.26a.37.37,0,0,0,.16.43.73.73,0,0,0,.74-.08.44.44,0,0,0,.15.23c.32.28.92,0,1.27-.19a.6.6,0,0,0,0,.19c0,.21.2.4.39.3a9.36,9.36,0,0,0,2.7-3C121.3,36.66,121.25,36.56,120.42,36.21Z"/><path class="cls-11" d="M119.81,38.64a4,4,0,0,1-.83.87c-.09.07,0,.19.13.12a4.31,4.31,0,0,0,.86-.9C120,38.64,119.88,38.55,119.81,38.64Z"/><path class="cls-11" d="M119.28,38.19c-.51.41-1,.81-1.57,1.19-.09.07,0,.22.09.15.56-.39,1.1-.79,1.61-1.2C119.49,38.25,119.37,38.12,119.28,38.19Z"/><path class="cls-11" d="M118.45,38a10.8,10.8,0,0,1-1.74,1c-.1.05,0,.2.09.15a10.8,10.8,0,0,0,1.74-1C118.64,38.06,118.54,37.91,118.45,38Z"/><path class="cls-18" d="M119.72,36.31s-.85-.62-2.28.34l1.2.75"/><path class="cls-18" d="M138.51,69.61a.27.27,0,0,0-.33-.18h0a4.34,4.34,0,0,0,0-.51c0-.23,0-.57-.3-.67a.37.37,0,0,0-.43.12,3.74,3.74,0,0,0-.12-.45.28.28,0,0,0-.26-.19c-.29,0-.43.23-.5.5,0,0-.11-.12-.13-.13a.27.27,0,0,0-.17-.06.55.55,0,0,0-.3.09.5.5,0,0,0-.14.31,2.81,2.81,0,0,0,0,.58c0,.24.05.47.07.71s0,.33,0,.5c-.23-.43-.54-1-.9-.71s0,.59.06.83a8.8,8.8,0,0,0,.73,1.35,4.34,4.34,0,0,1-.16.62,14.81,14.81,0,0,1,1.95,1,17,17,0,0,1,.72-2A2.26,2.26,0,0,0,138.51,69.61Z"/><path class="cls-11" d="M136.5,68.24c0,.65-.06,1.3-.11,2,0,0,.09,0,.09,0,.05-.65.08-1.3.1-2C136.59,68.18,136.5,68.18,136.5,68.24Z"/><path class="cls-11" d="M137.37,68.41c-.05.58-.12,1.17-.21,1.75,0,0,.08.08.09,0,.08-.59.16-1.19.21-1.78C137.46,68.35,137.38,68.35,137.37,68.41Z"/><path class="cls-11" d="M138.14,69.49c0,.41-.11.82-.19,1.22,0,.06.07.08.08,0a10.31,10.31,0,0,0,.19-1.24S138.14,69.44,138.14,69.49Z"/><path class="cls-18" d="M118.22,69.51c-.06-.14-.12-.27-.17-.41a.51.51,0,0,1,0-.24,3.4,3.4,0,0,0,.09-.64,5.65,5.65,0,0,0-.41-2,.69.69,0,0,0-.86-.45l-.17.08-.19-.34c-.35-.61-.72-1.67-1.51-1.75a.39.39,0,0,0-.39.37.28.28,0,0,0,0,.13c.15.4.3.79.46,1.18a.36.36,0,0,0-.51,0h0a.66.66,0,0,0-.13.73h-.1a.77.77,0,0,0-.27-.07.56.56,0,0,0-.39.21.59.59,0,0,0-.08.5h-.06a.5.5,0,0,0-.31.35.58.58,0,0,0,0,.32c0,.39,2,2.32,2,2.32l1.22,1.33,2-1A2.47,2.47,0,0,0,118.22,69.51Z"/><path class="cls-19" d="M132.09,88.06c-3.63-6.21-7-.14-7-.14a22.47,22.47,0,0,0-3.25,6.33c-.84,2.85-.83,12.09-.42,14.84,1.51.59,4.89.41,6.47,0V98a.14.14,0,0,1,.16-.11.14.14,0,0,1,.11.11l.07,22A19.83,19.83,0,0,0,136,118.7S135.51,93.9,132.09,88.06Z"/><path class="cls-20" d="M118.25,68.89a9.26,9.26,0,0,0-2.79,1.44c.35,1.22,4.16,10.75,9,12.76l.38-6.78S122.67,76.11,118.25,68.89Z"/><path class="cls-20" d="M135,71.85a8,8,0,0,1-3.71,5.77l.65,6.23c2.9-1.87,6-8.82,6.42-10.63A4.71,4.71,0,0,0,135,71.85Z"/><path class="cls-20" d="M123.87,83.47l.64,5.58s4.59,1.74,8,0V83.4"/><path class="cls-16" d="M134.66,81.87a2.37,2.37,0,0,0-.45-.86,9.38,9.38,0,0,0-1.05-1,.79.79,0,0,1-.21-.27c-.16-.48.4-1.2.32-1.78-.11-.86-.66-1.15-1.19-1.71a1.89,1.89,0,0,1-.54-1.07,9.51,9.51,0,0,1-.71-1.93,4,4,0,0,0-2.18-2.7,3.61,3.61,0,0,0-3.73.95c-.81.92-.65,2.18-.74,3.33a1,1,0,0,1,.1.34c.16,1.11-1.31,1.16-1.45,2.05a1.67,1.67,0,0,0,0,.5,3.84,3.84,0,0,0,.79,1.74c1,1.36-1.33,2.06-1.32,3.32a2.59,2.59,0,0,0,1.44,2.15,9.41,9.41,0,0,0,6.41.73C131.8,85.26,135.22,83.92,134.66,81.87Zm-9-2.07v-.08h.1Z"/><polygon class="cls-21" points="127.84 97.96 122.73 96.82 127.59 100.61 127.84 97.96"/><path class="cls-11" d="M115.78,66.64a16.51,16.51,0,0,1-1-2.46c0-.13-.25-.07-.2.06a16.52,16.52,0,0,0,1,2.52C115.65,66.87,115.84,66.76,115.78,66.64Z"/><path class="cls-11" d="M115,67.14a8.61,8.61,0,0,1-.53-1c-.06-.13-.25,0-.19.11a10.32,10.32,0,0,0,.53,1,.11.11,0,1,0,.19-.11Z"/><path class="cls-11" d="M114.2,67.7a3.14,3.14,0,0,1-.5-1c0-.13-.25-.07-.21.06a3.32,3.32,0,0,0,.51,1C114.11,67.92,114.29,67.81,114.2,67.7Z"/><path class="cls-11" d="M117.41,67.07c-.21-.42-.4-.85-.58-1.29,0-.13-.26-.08-.2,0,.18.46.38.91.59,1.35C117.28,67.31,117.47,67.2,117.41,67.07Z"/><path class="cls-18" d="M69.47,28.2a.34.34,0,0,0,0-.17,2.17,2.17,0,0,0-.68-1.59.76.76,0,0,0-1.06,0,.91.91,0,0,0-.11.16c-.47,1,.61,2,1.48,2.06.24,0,.34-.17.3-.36A.39.39,0,0,0,69.47,28.2Z"/><polygon class="cls-22" points="68.61 45.01 66.87 44.04 68.32 48.01 68.61 45.01"/><path class="cls-13" d="M88.06,83.67l-5.75,3.4,4.27,2.47c1.2-.7,4.65-2.73,5.75-3.39Z"/><path class="cls-13" d="M81.76,80,76,83.42l5.4,3.14,5.76-3.39Z"/><path class="cls-13" d="M58.91,66.75,53.08,70.1l5.19,3L64,69.74Z"/><path class="cls-13" d="M71.2,73.89l-5.74,3.4,4.26,2.47c1-.58,4.47-2.63,5.76-3.39Z"/><path class="cls-13" d="M64.91,70.23l-5.75,3.4,5.4,3.14c.63-.36,4.25-2.52,5.76-3.39Z"/><path class="cls-13" d="M93.21,86.69l-5.74,3.4,4.07,2.37c1.23-.71,4.68-2.75,5.76-3.39Z"/><path class="cls-13" d="M76.35,76.88l-5.74,3.4,4.53,2.62,5.77-3.39Z"/><path class="cls-13" d="M98.18,89.55,92.44,93l5.4,3.13c1.13-.65,4.57-2.69,5.76-3.39Z"/><polygon class="cls-13" points="104.47 93.21 98.74 96.61 108.42 102.23 114.25 98.88 104.47 93.21"/><path class="cls-13" d="M52.34,71.08,46.5,74.43l7.56,4.37c1-.57,4.45-2.62,5.76-3.39Z"/><path class="cls-13" d="M67,79.59,61.21,83l4.26,2.48,5.76-3.39Z"/><path class="cls-13" d="M77.54,85.73l-5.75,3.4,5.39,3.13c1.09-.63,4.54-2.66,5.77-3.39Z"/><path class="cls-13" d="M72.13,82.59,66.39,86l4.53,2.62c1.19-.69,4.63-2.73,5.76-3.39Z"/><path class="cls-13" d="M83.83,89.38l-5.74,3.4,4.28,2.48,5.76-3.39Z"/><path class="cls-13" d="M89,92.38l-5.74,3.38,4.07,2.37,5.76-3.39Z"/><path class="cls-13" d="M60.71,75.94,55,79.34l5.4,3.14,5.76-3.39Z"/><path class="cls-13" d="M94,95.26l-5.75,3.4,5.4,3.15,5.76-3.39Z"/><polygon class="cls-13" points="94.51 102.32 101.84 106.58 107.67 103.23 100.25 98.92 94.51 102.32"/><polygon class="cls-13" points="90.22 101.74 85.95 104.28 90.9 107.14 95.24 104.65 90.22 101.74"/><polygon class="cls-13" points="91.92 107.74 96.13 110.17 100.47 107.7 96.19 105.2 91.92 107.74"/><polygon class="cls-13" points="45.14 75.56 40.67 78.04 45.74 80.98 50.13 78.46 45.14 75.56"/><polygon class="cls-13" points="51.08 79.01 46.77 81.57 52.18 84.71 56.56 82.19 51.08 79.01"/><polygon class="cls-13" points="57.52 82.75 53.21 85.3 84.91 103.68 89.26 101.18 57.52 82.75"/><ellipse class="cls-23" cx="78.72" cy="20.82" rx="5.38" ry="8.82" transform="translate(-0.56 2.23) rotate(-1.62)"/><ellipse class="cls-24" cx="77.56" cy="19.32" rx="8.11" ry="5.4" transform="translate(51.37 94.84) rotate(-84.86)"/><ellipse class="cls-13" cx="77.47" cy="18.42" rx="2.35" ry="2.13" transform="translate(51.93 93.84) rotate(-84.67)"/><path class="cls-13" d="M72.85,23.58s1.26-2.78,3.5-2.43,3.66,1.51,4.58,4.66a4.43,4.43,0,0,1-5,1.72A5.34,5.34,0,0,1,72.85,23.58Z"/><path class="cls-18" d="M84.49,21.81a.41.41,0,0,0,0-.09.66.66,0,0,0,.21-.51.45.45,0,0,0-.19-.31.34.34,0,0,0,0-.48.36.36,0,0,0-.3-.08c-.5.1-.81.74-1.08,1.13s-.37.57-.55.86c0-.42-.09-.85-.12-1.25s-.65-.42-.65,0a6.08,6.08,0,0,1-.19,1.9.52.52,0,0,0-.17.12,15.5,15.5,0,0,1-6.65,4.12.61.61,0,0,0-.39.77.63.63,0,0,0,.45.4.6.6,0,0,0,.43.53.71.71,0,0,0,.33.46l-.43.18c-.7.29-.39,1.44.32,1.15a17,17,0,0,0,6.77-5.13c.21-.19.41-.39.61-.6s1.83-1.83,1.45-2.48C84.38,22.27,84.6,22.1,84.49,21.81Z"/><path class="cls-18" d="M74,14.75a3,3,0,0,0-1.2,2.13l.56-.28.1-.11A6.63,6.63,0,0,1,74,14.75Z"/><path class="cls-18" d="M74.11,16a.31.31,0,0,0-.13-.06l0,0c-.28-.22-.71.07-1,.2a5,5,0,0,0-.91.61,1.54,1.54,0,0,0-.27.58q-.15.38-.33.75a12.29,12.29,0,0,1-.83,1.51,14.2,14.2,0,0,1-2.12,2.59c-.37.36.2.92.57.56l.27-.27a.33.33,0,0,0,.38,0,1.25,1.25,0,0,0,.19-.15L70,22.2a.4.4,0,0,0,.52.23.38.38,0,0,0,.13-.09l.27-.28a.37.37,0,0,0,.2-.19s0,.55.05.54a18.34,18.34,0,0,0,1.4-2.52.12.12,0,0,1,0-.1,2.67,2.67,0,0,0,.34-1.51A6.56,6.56,0,0,1,73,17.2l.72-.55c.17-.14.36-.33.32-.51A.83.83,0,0,0,74.11,16Z"/><path class="cls-12" d="M76.77,26.09a8.72,8.72,0,0,1-4.18.42c-1.21,0-2.49-1.73-2.49-1.73S69.8,21,67.55,24c-1.68,2.21-2.33,8.6-2.52,11.69a6.21,6.21,0,0,0,3,1.07,13.29,13.29,0,0,0,2.09.17,3,3,0,0,0,1.25-.27l1.19-5.54A8.61,8.61,0,0,0,78,29.53Z"/><path class="cls-18" d="M71.29,21.55s1.63,3.14,0,4a2.26,2.26,0,0,1-3-1,2.6,2.6,0,0,1,2.06-3.06A2.44,2.44,0,0,1,71.29,21.55Z"/><path class="cls-16" d="M71.43,21.08a3.4,3.4,0,0,0-2.81-.38,4.12,4.12,0,0,0-2.18,1.14,1.46,1.46,0,0,0-2.16.66A1.27,1.27,0,0,0,64.79,24a1.61,1.61,0,0,0,1.2.11v.07c.05.6-.51.89-.73,1.4a1.16,1.16,0,0,0-.09.73c.06.25.32.51.31.77a1,1,0,0,1-.26.5,2.38,2.38,0,0,0-.28.55,5.91,5.91,0,0,0,3.93.37,6.65,6.65,0,0,0,3.67-2,1,1,0,0,0-.25-.34,3.6,3.6,0,0,0-.7-.37c-.35-.2,0-.81,0-1.13,0-.57-.43-.81-.9-1s-.35-.35-.36-.69a1.36,1.36,0,0,1,.16-.79.39.39,0,0,0,.3-.06,2.58,2.58,0,0,1,.56-.25.39.39,0,0,0,.24-.5A.32.32,0,0,0,71.43,21.08Z"/><path class="cls-16" d="M70.19,22.33a5.93,5.93,0,0,0,1.51-.54c0-.05.15-2-3.32-1.33s-1.82,4.84-1.82,4.84"/><path class="cls-25" d="M103.1,26.78l24.29,14.3a1.62,1.62,0,0,1,.79,1.45l-.84,22.12a1.57,1.57,0,0,1-1.62,1.54A1.55,1.55,0,0,1,125,66L101.51,52.31a1.6,1.6,0,0,1-.79-1.4V28.17a1.59,1.59,0,0,1,1.57-1.6A1.56,1.56,0,0,1,103.1,26.78Z"/><path class="cls-7" d="M118.08,20.55c-1-.45-3.28-2-6.19-.57s-5.68,4-2.67,11.62a4.36,4.36,0,0,0,3,0s-.62-6.68.32-7.45l9.78,5.43a6.52,6.52,0,0,1-3.41,6.32l2.7,2.47c2.21,0,7.05-7,5.54-12s-9.76-6.07-9.76-6.07"/><path class="cls-24" d="M118.08,20.55c-1-.45-3.28-2-6.19-.57s-5.68,4-2.67,11.62a4.36,4.36,0,0,0,3,0s-.62-6.68.32-7.45l9.78,5.43a6.52,6.52,0,0,1-3.41,6.32l2.7,2.47c2.21,0,7.05-7,5.54-12s-9.76-6.07-9.76-6.07"/><path class="cls-26" d="M121.2,20.14c-.67.73-1.94.4-2.78.21-1-.23-2.2-.85-2.11-2.07a.14.14,0,0,0-.28,0c-.1,1.27,1.06,2,2.15,2.31s2.44.6,3.22-.25C121.52,20.19,121.32,20,121.2,20.14Z"/><path class="cls-18" d="M115.76,17.52s0,6.19,2.27,6.59c2.52.44,3.9-2.39,3.9-2.39s.32-5.47-2.16-5.95S115.83,16.73,115.76,17.52Z"/><path class="cls-11" d="M117.66,21.7a.35.35,0,0,1-.17,0c.05-.58.13-1.15.23-1.72a.17.17,0,0,0-.13-.19.17.17,0,0,0-.18.13,16.58,16.58,0,0,0-.25,1.84.17.17,0,0,0,.09.18.76.76,0,0,0,.44.11A.17.17,0,0,0,117.66,21.7Z"/><path class="cls-11" d="M118.71,21.82a.9.9,0,0,1-1.16.5c-.13,0-.18.16,0,.21a1.11,1.11,0,0,0,1.4-.58C119,21.8,118.77,21.7,118.71,21.82Z"/><path class="cls-11" d="M118.43,20.94a.16.16,0,0,0-.16.16.16.16,0,1,0,.32,0A.16.16,0,0,0,118.43,20.94Z"/><path class="cls-11" d="M116.43,20.51a.16.16,0,1,0,.16.16A.16.16,0,0,0,116.43,20.51Z"/><path class="cls-18" d="M120.15,21.1s.6-2.37,1.27-1.59-1.08,2.5-1.08,2.5"/><path class="cls-16" d="M120.77,15a3.58,3.58,0,0,1,2.86,2c.65,1.78-1,5.28-2.2,5.83l1.44-3.09-.07-2.08Z"/><path class="cls-16" d="M123.6,17.79c-.18-1.23-1-1.83-2.07-2.46l-.27-.15a1.81,1.81,0,0,0,.51-.62.17.17,0,0,0-.06-.22l-.09,0a1,1,0,0,0-.73.36,2.1,2.1,0,0,0-.5-.68.17.17,0,0,0-.24,0l0,.07a.84.84,0,0,0,0,.74,4.71,4.71,0,0,0-3.27.51,2.64,2.64,0,0,0-.92.84,1.58,1.58,0,0,0-.88.16,1.49,1.49,0,0,0-.84,1.58,1.33,1.33,0,0,0,1.63.87,2,2,0,0,0,.93-.44c-.2.34-.3.77.36.93,1.13.26,1.67-.42,1.74.15s.7.72,1.16.73a5.28,5.28,0,0,1,.22.5,1.32,1.32,0,0,1,.71,0,.18.18,0,0,1,.25,0l0,0a3,3,0,0,1,.15,2.19,6,6,0,0,0,1.51-1.89A5.54,5.54,0,0,0,123.6,17.79Zm-3.23-3.32,0,.07v.06a.47.47,0,0,0,.06.15A.69.69,0,0,1,120.37,14.47Z"/><path class="cls-27" d="M132.63,47.4l14.46,8.43a.87.87,0,0,1,.43.76h0a.89.89,0,0,1-1.33.77L131.74,49a.89.89,0,0,1-.44-.77v-.05a.87.87,0,0,1,.88-.88A.87.87,0,0,1,132.63,47.4Z"/><path class="cls-27" d="M132.63,51.93l14.46,8.43a.89.89,0,0,1,.43.77h0a.88.88,0,0,1-.88.88.89.89,0,0,1-.45-.12l-14.45-8.35a.89.89,0,0,1-.44-.77v-.05a.88.88,0,0,1,.86-.91A.87.87,0,0,1,132.63,51.93Z"/><path class="cls-27" d="M132.63,56.51l14.46,8.43a.88.88,0,0,1,.43.76h0a.89.89,0,0,1-1.33.77l-14.45-8.38a.89.89,0,0,1-.44-.76v0a.88.88,0,0,1,.88-.89A.87.87,0,0,1,132.63,56.51Z"/><path class="cls-28" d="M132.63,61.06l14.46,8.43a.89.89,0,0,1,.43.77h0a.88.88,0,0,1-.88.89.9.9,0,0,1-.45-.13l-14.45-8.37a.89.89,0,0,1-.44-.76v0a.89.89,0,0,1,1.33-.78Z"/><polygon class="cls-24" points="96.35 31.64 96.35 46.23 85.06 39.76 85.06 25.3 96.35 31.64"/><polygon class="cls-24" points="86.36 39.76 86.36 43.33 89.24 40.82 86.36 39.76"/><path class="cls-13" d="M89.51,33.11,87,34.67a.34.34,0,0,0-.12.46l2,2.68c.25.35.85,0,.59-.34l-2-2.67-.12.47,2.51-1.55a.34.34,0,0,0-.34-.59Z"/><path class="cls-13" d="M91.22,34.49l2.09,3,.12-.47-2.56,1.28c-.39.2,0,.79.35.59l2.55-1.28a.34.34,0,0,0,.13-.47l-2.1-3c-.25-.36-.84,0-.58.34Z"/><ellipse class="cls-29" cx="147.04" cy="49.88" rx="0.81" ry="0.88"/><ellipse class="cls-30" cx="144.45" cy="48.56" rx="0.81" ry="0.88"/><ellipse class="cls-31" cx="141.86" cy="47.27" rx="0.81" ry="0.88"/><polyline class="cls-32" points="61.45 58.68 79.19 68.74 85.66 65.42"/><line class="cls-32" x1="79.13" y1="68.89" x2="79.13" y2="72.95"/><path class="cls-18" d="M66.4,65.53a2.06,2.06,0,0,1-1-.48A1.85,1.85,0,0,1,65.18,64V62.91a.21.21,0,0,1-.07-.13,6,6,0,0,1,0-.85l-1.44-.14a25.74,25.74,0,0,0-.6,2.74c0,.28,1.41,2.16,2.11,2.28a5.56,5.56,0,0,0,2.8-.75h0A16.28,16.28,0,0,1,66.4,65.53Z"/><path class="cls-18" d="M76.36,60.41a15.38,15.38,0,0,0-2.44.23S73.64,59,73.68,59l-2.05.14s-.25,3-.25,3.38c0,.72.89,1,1.09.92a3,3,0,0,0,.41-.17,6.1,6.1,0,0,1-.11-1.13.33.33,0,0,1,.21-.36,2.74,2.74,0,0,1,1.17.11c.37.07.73.16,1.1.22a5.24,5.24,0,0,0,1.55-1C76.93,60.66,77.09,60.56,76.36,60.41Z"/><path class="cls-11" d="M77.05,60.55l0-.06c-.16-.15-.57-.14-.76-.15a10.11,10.11,0,0,0-2.32.3s1.86-.25,1.93.08a.89.89,0,0,1-.19.77c-.77.69-2-.07-2.74-.4l-1.41-.6-.09,1.14a8.24,8.24,0,0,0,0,1.57c.1.16.93.6,1.1.5s.73-.41.73-.41l-.12-1.38a3.92,3.92,0,0,0,1.71.36C75.26,62.17,77.53,61.19,77.05,60.55Z"/><path class="cls-11" d="M64.41,64.59a13.49,13.49,0,0,0,1,2.52c.25.16,3.17-.77,2.74-1.32-.28-.36-2-.35-2.18-.4,0,0,.92.3.92.45a2.47,2.47,0,0,1-1.22.58c-.06-.12-1.32-2.18-1.32-2.18l-1.19-.42-1,2.16.82.35s.26.66.34.66a9.45,9.45,0,0,0,.76-1.21,3.23,3.23,0,0,0,.29.86c.11.09,1.08.88,1.51.27L65.13,66"/><polyline class="cls-11" points="62.22 65.98 62.37 66.52 63.38 66.99 63.38 65.98 62.8 65.78"/><path class="cls-33" d="M70.43,59.91a5.91,5.91,0,0,0,5.13-1.22c0-3,.31-5.78.22-8.81-.15-5-.87-9.81-4.34-13.68l-6.33-1C62.54,40.12,62,62.47,62,62.47s3.22,2.06,5.67,1.05l1-18.64a12.68,12.68,0,0,1,2,3.09C70.85,48.81,70.39,56.16,70.43,59.91Z"/></g></svg>